<svg width="28" height="20" viewBox="0 0 28 20" fill="none" xmlns="http://www.w3.org/2000/svg">
<path d="M24.0473 3.06667C22.2092 1.62172 19.9678 0.783121 17.6327 0.666672L17.3127 1.03334C19.3916 1.58614 21.3295 2.57416 22.998 3.93201C20.8714 2.76093 18.5366 2.01633 16.1247 1.74001C14.591 1.57147 13.0426 1.58714 11.5127 1.78667C11.3823 1.79035 11.2524 1.80552 11.1247 1.83201C9.33261 2.0359 7.58398 2.52143 5.94334 3.27067C5.09801 3.65867 4.59668 3.93734 4.59668 3.93734C6.35282 2.51197 8.40134 1.4909 10.5967 0.946671L10.3687 0.672007C8.03351 0.788456 5.79213 1.62706 3.95402 3.07201C1.86439 7.20225 0.740104 11.7532 0.666016 16.3813C1.45425 17.4855 2.50169 18.3791 3.71623 18.9836C4.93076 19.5881 6.2752 19.8849 7.63135 19.848C7.63135 19.848 8.47534 18.8213 9.15934 17.9533C7.55262 17.5497 6.13763 16.5969 5.15934 15.26C5.15934 15.26 5.38736 15.42 5.79936 15.648C5.82544 15.6757 5.8561 15.6987 5.89001 15.716C5.95935 15.7613 6.02335 15.784 6.09668 15.8293C6.63352 16.1268 7.19043 16.3865 7.76335 16.6067C8.84946 17.0349 9.97233 17.3634 11.118 17.588C13.0706 17.9627 15.0759 17.9704 17.0314 17.6107C18.1694 17.4118 19.2807 17.0826 20.3433 16.6293C21.2662 16.2803 22.1468 15.8285 22.9687 15.2827C21.9548 16.6477 20.4906 17.6098 18.8353 17.9987C19.5207 18.8653 20.342 19.8467 20.342 19.8467C21.7006 19.8814 23.0472 19.5838 24.2646 18.9796C25.482 18.3754 26.5334 17.483 27.3274 16.38C27.2559 11.7512 26.1344 7.19893 24.0473 3.06667ZM9.73269 14.2467C9.08931 14.2159 8.48403 13.9326 8.0482 13.4583C7.61236 12.984 7.38113 12.357 7.40468 11.7133C7.39109 11.3941 7.44054 11.0753 7.55019 10.7752C7.65985 10.4751 7.82757 10.1996 8.04376 9.96429C8.25996 9.72903 8.52039 9.53867 8.81018 9.4041C9.09997 9.26953 9.41345 9.19338 9.73269 9.18C10.0525 9.19145 10.367 9.26631 10.6577 9.40023C10.9484 9.53415 11.2096 9.72446 11.4261 9.96013C11.6427 10.1958 11.8103 10.4721 11.9192 10.7731C12.0282 11.0741 12.0763 11.3937 12.0607 11.7133C12.0743 12.0326 12.0248 12.3513 11.9152 12.6514C11.8055 12.9516 11.6378 13.2271 11.4216 13.4624C11.2054 13.6976 10.945 13.888 10.6552 14.0226C10.3654 14.1572 10.0519 14.2333 9.73269 14.2467ZM18.066 14.2467C17.4226 14.2159 16.8174 13.9326 16.3815 13.4583C15.9457 12.984 15.7145 12.357 15.738 11.7133C15.7244 11.3941 15.7739 11.0753 15.8835 10.7752C15.9932 10.4751 16.1609 10.1996 16.3771 9.96429C16.5933 9.72903 16.8537 9.53867 17.1435 9.4041C17.4333 9.26953 17.7468 9.19338 18.066 9.18C18.3853 9.19338 18.6987 9.26953 18.9885 9.4041C19.2783 9.53867 19.5387 9.72903 19.7549 9.96429C19.9711 10.1996 20.1389 10.4751 20.2485 10.7752C20.3582 11.0753 20.4076 11.3941 20.394 11.7133C20.4076 12.0326 20.3582 12.3513 20.2485 12.6514C20.1389 12.9516 19.9711 13.2271 19.7549 13.4624C19.5387 13.6976 19.2783 13.888 18.9885 14.0226C18.6987 14.1572 18.3853 14.2333 18.066 14.2467Z" fill="white"/>
</svg>
