<svg width="26" height="24" viewBox="0 0 26 24" fill="none" xmlns="http://www.w3.org/2000/svg">
<path fill-rule="evenodd" clip-rule="evenodd" d="M10.9169 15.5232C11.1777 13.6528 24.8369 3.44321 21.6177 5.14561L12.9425 10.1696C7.80813 13.288 8.18095 12.7904 9.26255 16.5024C9.45004 17.448 9.74027 18.3703 10.1281 19.2528C10.7329 19.976 10.9042 15.5728 10.9122 15.5232H10.9169ZM6.11216 13.504C6.60336 13.6976 6.49615 13.632 6.66255 14.2016C7.03215 15.4576 7.41614 16.616 7.79214 17.8608C9.06254 22.0864 8.91214 22.1104 10.7153 20.6384C13.7009 18.2096 13.4241 17.9712 15.1377 19.1808L20.0786 22.784C21.4834 23.8464 21.5569 21.696 21.7985 20.544L25.7586 1.65601C25.8465 1.28801 25.7953 1.0624 25.6593 0.934403C25.3729 0.667203 24.7137 0.838411 24.1857 1.05281L3.12974 9.17281C-3.18226 11.5472 2.07855 11.92 6.11055 13.504H6.11216Z" fill="white"/>
</svg>
