<svg width="26" height="22" viewBox="0 0 26 22" fill="none" xmlns="http://www.w3.org/2000/svg">
<path d="M25.7992 2.86081C24.8412 3.28659 23.8244 3.56546 22.7832 3.68801C23.8793 3.03182 24.6998 1.99983 25.092 0.784005C24.0611 1.39778 22.9329 1.83069 21.756 2.06401C20.9642 1.2236 19.9177 0.667253 18.7781 0.480857C17.6386 0.294461 16.4694 0.488389 15.4511 1.03269C14.4327 1.577 13.6219 2.44141 13.1437 3.49245C12.6656 4.54349 12.5468 5.7227 12.8056 6.84801C10.7173 6.74317 8.67435 6.20041 6.80935 5.25496C4.94435 4.3095 3.29898 2.98248 1.98002 1.36001C1.30861 2.51652 1.10298 3.88538 1.40496 5.18812C1.70694 6.49086 2.49385 7.62964 3.60562 8.37281C2.77203 8.34606 1.95688 8.12061 1.22802 7.71521V7.78081C1.22788 8.99337 1.64713 10.1687 2.41467 11.1074C3.18221 12.0461 4.25079 12.6905 5.43922 12.9312C4.66585 13.1406 3.85498 13.1712 3.06802 13.0208C3.40388 14.0639 4.0572 14.9761 4.9367 15.6298C5.81621 16.2836 6.87796 16.6463 7.97362 16.6672C6.11374 18.1276 3.81672 18.9199 1.45202 18.9168C1.0333 18.9165 0.61497 18.8914 0.199219 18.8416C2.6012 20.3837 5.39603 21.2024 8.25042 21.2C10.2165 21.2138 12.1657 20.8368 13.9848 20.0909C15.8039 19.345 17.4567 18.2451 18.8471 16.855C20.2375 15.4649 21.3378 13.8123 22.0841 11.9934C22.8304 10.1744 23.2078 8.22527 23.1944 6.25921C23.1944 6.03201 23.1944 5.80481 23.1784 5.57921C24.2069 4.83637 25.0945 3.91577 25.7992 2.86081Z" fill="white"/>
</svg>
