<svg viewBox="0 0 300 300" fill="none" xmlns="http://www.w3.org/2000/svg">
<path d="M92.5 265.33H100.59V311.64H124.71V318.61H92.5V265.33V265.33Z" fill="#4361EE"/>
<path d="M149.14 265.33L163.01 289.5H163.58L177.45 265.33H186.66L167.36 297.72V318.61H159.24V297.72L139.94 265.33H149.15H149.14Z" fill="#4361EE"/>
<path d="M216.53 318.61H208.44V265.33H216.53V318.61ZM212.55 318.61V311.53H225.3C229.31 311.53 232.65 310.77 235.34 309.25C238.03 307.73 240.04 305.52 241.36 302.6C242.69 299.69 243.35 296.11 243.35 291.88C243.35 287.65 242.69 284.14 241.37 281.24C240.05 278.34 238.09 276.15 235.48 274.64C232.87 273.14 229.63 272.39 225.76 272.39H212.26V265.31H226.26C231.46 265.31 235.95 266.37 239.71 268.48C243.47 270.6 246.35 273.65 248.35 277.65C250.34 281.65 251.34 286.39 251.34 291.87C251.34 297.35 250.33 302.17 248.32 306.18C246.31 310.19 243.38 313.26 239.54 315.39C235.7 317.52 231.1 318.59 225.74 318.59H212.55V318.61Z" fill="#4361EE"/>
<path d="M268.8 318.61L287.95 265.33H297.34L316.49 318.61H307.88L292.84 275.06H292.42L277.38 318.61H268.79H268.8ZM306.5 297.74V304.53H278.79V297.74H306.5Z" fill="#4361EE"/>
<path d="M91.9302 340.09H95.5102C96.2602 340.09 96.8902 340.23 97.4202 340.51C97.9402 340.79 98.3302 341.17 98.5902 341.66C98.8502 342.15 98.9802 342.71 98.9802 343.34C98.9802 343.97 98.8502 344.53 98.5902 345.02C98.3302 345.51 97.9402 345.89 97.4202 346.18C96.9002 346.46 96.2602 346.6 95.5102 346.6H93.0502V345.31H95.3602C95.8402 345.31 96.2302 345.23 96.5402 345.06C96.8502 344.89 97.0802 344.66 97.2302 344.37C97.3802 344.08 97.4502 343.74 97.4502 343.35C97.4502 342.96 97.3802 342.62 97.2302 342.33C97.0802 342.04 96.8502 341.81 96.5402 341.65C96.2302 341.49 95.8302 341.4 95.3502 341.4H93.4502V350.1H91.9302V340.09V340.09Z" fill="#4361EE"/>
<path d="M104.75 350.1H103.27V340.09H104.75V350.1Z" fill="#4361EE"/>
<path d="M113.07 346.76C112.68 346.79 112.34 346.81 112.05 346.83C111.55 346.87 111.17 346.98 110.89 347.17C110.62 347.36 110.48 347.64 110.48 348C110.48 348.24 110.54 348.43 110.66 348.6C110.78 348.77 110.95 348.89 111.16 348.97C111.37 349.05 111.62 349.09 111.9 349.09C112.29 349.09 112.63 349.01 112.92 348.86C113.21 348.7 113.43 348.5 113.59 348.24C113.74 347.98 113.82 347.7 113.82 347.4V345.03C113.82 344.75 113.76 344.5 113.64 344.3C113.52 344.1 113.35 343.95 113.12 343.85C112.89 343.75 112.61 343.7 112.28 343.7C112 343.7 111.75 343.74 111.54 343.82C111.33 343.9 111.15 344.01 111.01 344.15C110.87 344.29 110.78 344.46 110.73 344.65H109.26C109.31 344.24 109.46 343.87 109.73 343.54C109.99 343.21 110.35 342.96 110.79 342.78C111.24 342.6 111.75 342.51 112.33 342.51C112.81 342.51 113.27 342.58 113.71 342.73C114.15 342.88 114.52 343.15 114.82 343.54C115.12 343.93 115.28 344.46 115.28 345.13V350.11H113.84V349.08H113.78C113.68 349.29 113.53 349.48 113.33 349.66C113.14 349.84 112.89 349.98 112.59 350.1C112.29 350.22 111.94 350.27 111.55 350.27C111.07 350.27 110.64 350.18 110.26 350C109.88 349.82 109.57 349.56 109.35 349.22C109.13 348.88 109.02 348.47 109.02 347.99C109.02 347.22 109.28 346.67 109.81 346.33C110.34 346 111.01 345.8 111.83 345.74C112.06 345.72 112.33 345.71 112.63 345.69C112.94 345.67 113.23 345.66 113.5 345.65C113.68 345.65 113.8 345.64 113.89 345.64L113.91 346.72C113.73 346.72 113.45 346.74 113.06 346.77L113.07 346.76Z" fill="#4361EE"/>
<path d="M123.41 343.77H119.3V342.59H123.41V343.77ZM121.88 340.79V347.89C121.88 348.16 121.92 348.36 122 348.51C122.08 348.66 122.19 348.76 122.31 348.81C122.43 348.86 122.59 348.89 122.77 348.89C122.9 348.89 123.14 348.89 123.5 348.86V350.13C123.23 350.17 122.93 350.19 122.59 350.19C122.19 350.19 121.82 350.12 121.49 349.97C121.16 349.82 120.89 349.6 120.69 349.3C120.49 349 120.39 348.63 120.39 348.2V340.8H121.87L121.88 340.79Z" fill="#4361EE"/>
<path d="M131.26 343.77H127.01V342.59H131.26V343.77ZM128.45 340.59C128.63 340.27 128.89 340.03 129.22 339.87C129.56 339.71 129.95 339.62 130.41 339.62C130.58 339.62 130.75 339.62 130.93 339.65C131.11 339.67 131.27 339.69 131.41 339.72V340.95C131.19 340.92 130.98 340.9 130.79 340.9C130.4 340.9 130.11 340.98 129.92 341.15C129.74 341.32 129.64 341.58 129.64 341.94V350.1H128.16V341.73C128.16 341.29 128.25 340.91 128.43 340.59H128.45Z" fill="#4361EE"/>
<path d="M136.45 349.77C135.92 349.45 135.51 348.99 135.22 348.41C134.93 347.83 134.79 347.15 134.79 346.38C134.79 345.61 134.93 344.93 135.22 344.34C135.51 343.75 135.92 343.3 136.45 342.98C136.98 342.66 137.6 342.5 138.29 342.5C138.98 342.5 139.6 342.66 140.13 342.98C140.66 343.3 141.07 343.76 141.36 344.34C141.65 344.92 141.79 345.61 141.79 346.38C141.79 347.15 141.65 347.82 141.36 348.41C141.07 349 140.66 349.45 140.13 349.77C139.6 350.09 138.99 350.25 138.29 350.25C137.59 350.25 136.98 350.09 136.45 349.77ZM139.4 348.67C139.7 348.44 139.93 348.12 140.08 347.72C140.23 347.32 140.31 346.87 140.31 346.38C140.31 345.89 140.23 345.44 140.08 345.04C139.93 344.64 139.7 344.32 139.4 344.08C139.1 343.84 138.73 343.72 138.29 343.72C137.85 343.72 137.47 343.84 137.17 344.07C136.87 344.31 136.64 344.63 136.49 345.03C136.34 345.43 136.26 345.88 136.26 346.37C136.26 346.86 136.34 347.31 136.49 347.71C136.64 348.11 136.87 348.43 137.17 348.66C137.47 348.89 137.84 349.01 138.29 349.01C138.74 349.01 139.1 348.89 139.4 348.66V348.67Z" fill="#4361EE"/>
<path d="M146.09 342.6H147.52V343.8H147.6C147.69 343.53 147.83 343.3 148.02 343.1C148.21 342.9 148.43 342.75 148.69 342.64C148.95 342.54 149.22 342.48 149.51 342.48C149.73 342.48 149.94 342.49 150.14 342.51V343.92C150.06 343.9 149.94 343.88 149.79 343.86C149.64 343.84 149.5 343.83 149.37 343.83C149.03 343.83 148.72 343.9 148.45 344.04C148.18 344.18 147.96 344.38 147.81 344.64C147.65 344.9 147.58 345.19 147.58 345.51V350.08H146.1V342.57L146.09 342.6Z" fill="#4361EE"/>
<path d="M154.05 342.6H155.47V343.83H155.56C155.72 343.41 155.97 343.09 156.33 342.85C156.69 342.62 157.11 342.5 157.6 342.5C157.93 342.5 158.23 342.55 158.49 342.65C158.75 342.75 158.98 342.9 159.17 343.1C159.36 343.3 159.51 343.54 159.62 343.82H159.7C159.82 343.55 159.99 343.31 160.21 343.12C160.43 342.92 160.68 342.77 160.98 342.66C161.28 342.55 161.6 342.5 161.96 342.5C162.42 342.5 162.82 342.6 163.17 342.79C163.52 342.98 163.79 343.27 163.99 343.66C164.18 344.05 164.28 344.52 164.28 345.08V350.11H162.8V345.22C162.8 344.73 162.67 344.37 162.41 344.14C162.15 343.9 161.81 343.78 161.4 343.78C161.09 343.78 160.82 343.84 160.59 343.97C160.37 344.1 160.19 344.28 160.07 344.51C159.95 344.74 159.89 345.01 159.89 345.32V350.1H158.43V345.12C158.43 344.85 158.37 344.61 158.26 344.41C158.15 344.21 157.98 344.05 157.78 343.94C157.57 343.83 157.33 343.77 157.07 343.77C156.81 343.77 156.54 343.84 156.3 343.98C156.07 344.12 155.88 344.32 155.74 344.59C155.6 344.85 155.53 345.15 155.53 345.48V350.1H154.05V342.59V342.6Z" fill="#4361EE"/>
<path d="M178.76 343.77H174.51V342.59H178.76V343.77ZM175.95 340.59C176.13 340.27 176.39 340.03 176.72 339.87C177.06 339.71 177.45 339.62 177.91 339.62C178.08 339.62 178.25 339.62 178.43 339.65C178.61 339.67 178.77 339.69 178.91 339.72V340.95C178.69 340.92 178.48 340.9 178.29 340.9C177.9 340.9 177.61 340.98 177.42 341.15C177.24 341.32 177.14 341.58 177.14 341.94V350.1H175.66V341.73C175.66 341.29 175.75 340.91 175.93 340.59H175.95Z" fill="#4361EE"/>
<path d="M183.95 349.77C183.42 349.45 183.01 348.99 182.72 348.41C182.43 347.83 182.29 347.15 182.29 346.38C182.29 345.61 182.43 344.93 182.72 344.34C183.01 343.75 183.42 343.3 183.95 342.98C184.48 342.66 185.1 342.5 185.79 342.5C186.48 342.5 187.1 342.66 187.63 342.98C188.16 343.3 188.57 343.76 188.86 344.34C189.15 344.92 189.29 345.61 189.29 346.38C189.29 347.15 189.15 347.82 188.86 348.41C188.57 349 188.16 349.45 187.63 349.77C187.1 350.09 186.49 350.25 185.79 350.25C185.09 350.25 184.48 350.09 183.95 349.77ZM186.9 348.67C187.2 348.44 187.43 348.12 187.58 347.72C187.73 347.32 187.81 346.87 187.81 346.38C187.81 345.89 187.73 345.44 187.58 345.04C187.43 344.64 187.2 344.32 186.9 344.08C186.6 343.84 186.23 343.72 185.79 343.72C185.35 343.72 184.97 343.84 184.67 344.07C184.37 344.31 184.14 344.63 183.99 345.03C183.84 345.43 183.76 345.88 183.76 346.37C183.76 346.86 183.84 347.31 183.99 347.71C184.14 348.11 184.37 348.43 184.67 348.66C184.97 348.89 185.34 349.01 185.79 349.01C186.24 349.01 186.6 348.89 186.9 348.66V348.67Z" fill="#4361EE"/>
<path d="M193.59 342.6H195.02V343.8H195.1C195.19 343.53 195.33 343.3 195.52 343.1C195.71 342.9 195.93 342.75 196.19 342.64C196.45 342.54 196.72 342.48 197.01 342.48C197.23 342.48 197.44 342.49 197.64 342.51V343.92C197.56 343.9 197.44 343.88 197.29 343.86C197.14 343.84 197 343.83 196.87 343.83C196.53 343.83 196.22 343.9 195.95 344.04C195.68 344.18 195.46 344.38 195.31 344.64C195.15 344.9 195.08 345.19 195.08 345.51V350.08H193.6V342.57L193.59 342.6Z" fill="#4361EE"/>
<path d="M213.09 341.94C212.91 341.72 212.67 341.55 212.37 341.44C212.07 341.33 211.73 341.27 211.35 341.27C210.95 341.27 210.6 341.33 210.29 341.46C209.99 341.59 209.75 341.76 209.59 341.99C209.42 342.21 209.34 342.47 209.34 342.75C209.34 343.17 209.51 343.5 209.85 343.72C210.19 343.95 210.63 344.13 211.15 344.26L212.12 344.51C212.63 344.64 213.1 344.81 213.52 345.02C213.94 345.23 214.29 345.53 214.57 345.91C214.85 346.29 214.99 346.76 214.99 347.33C214.99 347.9 214.84 348.41 214.55 348.85C214.26 349.29 213.83 349.64 213.27 349.89C212.71 350.14 212.05 350.27 211.28 350.27C210.51 350.27 209.89 350.15 209.34 349.91C208.79 349.67 208.36 349.33 208.05 348.89C207.74 348.45 207.56 347.93 207.53 347.33H209.05C209.08 347.68 209.19 347.97 209.39 348.21C209.59 348.45 209.85 348.63 210.18 348.75C210.51 348.87 210.87 348.93 211.27 348.93C211.69 348.93 212.07 348.86 212.41 348.73C212.75 348.59 213.01 348.4 213.2 348.16C213.39 347.92 213.48 347.63 213.48 347.32C213.48 347.04 213.4 346.81 213.24 346.62C213.08 346.43 212.87 346.27 212.6 346.15C212.33 346.03 211.99 345.91 211.58 345.81L210.4 345.49C209.56 345.26 208.91 344.93 208.46 344.5C208.01 344.07 207.79 343.51 207.79 342.84C207.79 342.27 207.95 341.77 208.26 341.34C208.57 340.9 209 340.57 209.53 340.33C210.07 340.09 210.67 339.97 211.35 339.97C212.03 339.97 212.62 340.09 213.14 340.32C213.67 340.56 214.08 340.89 214.38 341.31C214.68 341.73 214.83 342.21 214.84 342.74H213.37C213.34 342.44 213.23 342.18 213.05 341.95L213.09 341.94Z" fill="#4361EE"/>
<path d="M220.7 349.77C220.17 349.45 219.76 348.99 219.47 348.41C219.18 347.83 219.04 347.15 219.04 346.38C219.04 345.61 219.18 344.93 219.47 344.34C219.76 343.75 220.17 343.3 220.7 342.98C221.23 342.66 221.85 342.5 222.54 342.5C223.23 342.5 223.85 342.66 224.38 342.98C224.91 343.3 225.32 343.76 225.61 344.34C225.9 344.92 226.04 345.61 226.04 346.38C226.04 347.15 225.9 347.82 225.61 348.41C225.32 349 224.91 349.45 224.38 349.77C223.85 350.09 223.24 350.25 222.54 350.25C221.84 350.25 221.23 350.09 220.7 349.77ZM223.65 348.67C223.95 348.44 224.18 348.12 224.33 347.72C224.48 347.32 224.56 346.87 224.56 346.38C224.56 345.89 224.48 345.44 224.33 345.04C224.18 344.64 223.95 344.32 223.65 344.08C223.35 343.84 222.98 343.72 222.54 343.72C222.1 343.72 221.72 343.84 221.42 344.07C221.12 344.31 220.89 344.63 220.74 345.03C220.59 345.43 220.51 345.88 220.51 346.37C220.51 346.86 220.59 347.31 220.74 347.71C220.89 348.11 221.12 348.43 221.42 348.66C221.72 348.89 222.09 349.01 222.54 349.01C222.99 349.01 223.35 348.89 223.65 348.66V348.67Z" fill="#4361EE"/>
<path d="M231.64 349.76C231.11 349.43 230.7 348.98 230.42 348.39C230.14 347.8 230 347.13 230 346.38C230 345.63 230.14 344.95 230.43 344.36C230.72 343.77 231.13 343.31 231.65 342.99C232.18 342.66 232.79 342.5 233.49 342.5C234.05 342.5 234.56 342.6 235.01 342.81C235.46 343.02 235.83 343.31 236.1 343.7C236.37 344.08 236.53 344.53 236.58 345.03H235.15C235.1 344.79 235 344.57 234.86 344.37C234.72 344.17 234.53 344.02 234.3 343.91C234.07 343.8 233.81 343.74 233.51 343.74C233.11 343.74 232.75 343.85 232.45 344.06C232.15 344.27 231.91 344.58 231.74 344.97C231.57 345.36 231.49 345.82 231.49 346.35C231.49 346.88 231.57 347.36 231.74 347.76C231.91 348.16 232.14 348.47 232.45 348.68C232.76 348.9 233.11 349.01 233.52 349.01C233.8 349.01 234.05 348.96 234.28 348.86C234.51 348.76 234.7 348.61 234.85 348.42C235 348.23 235.11 348 235.17 347.73H236.6C236.55 348.22 236.39 348.65 236.12 349.04C235.85 349.42 235.5 349.72 235.05 349.94C234.6 350.16 234.09 350.26 233.51 350.26C232.8 350.26 232.18 350.1 231.65 349.77L231.64 349.76Z" fill="#4361EE"/>
<path d="M241.11 341.32C240.97 341.24 240.85 341.13 240.77 341C240.68 340.87 240.64 340.72 240.64 340.57C240.64 340.42 240.68 340.26 240.77 340.13C240.86 339.99 240.97 339.89 241.11 339.81C241.25 339.73 241.4 339.7 241.57 339.7C241.74 339.7 241.89 339.74 242.03 339.81C242.17 339.89 242.29 339.99 242.37 340.13C242.45 340.26 242.49 340.41 242.49 340.57C242.49 340.73 242.45 340.87 242.37 341C242.29 341.13 242.17 341.24 242.03 341.32C241.89 341.4 241.73 341.44 241.57 341.44C241.41 341.44 241.25 341.4 241.11 341.32ZM240.82 342.59H242.3V350.1H240.82V342.59Z" fill="#4361EE"/>
<path d="M250.61 346.76C250.22 346.79 249.88 346.81 249.59 346.83C249.09 346.87 248.71 346.98 248.43 347.17C248.16 347.36 248.02 347.64 248.02 348C248.02 348.24 248.08 348.43 248.2 348.6C248.32 348.77 248.49 348.89 248.7 348.97C248.91 349.05 249.16 349.09 249.44 349.09C249.83 349.09 250.17 349.01 250.46 348.86C250.75 348.7 250.97 348.5 251.13 348.24C251.28 347.98 251.36 347.7 251.36 347.4V345.03C251.36 344.75 251.3 344.5 251.18 344.3C251.06 344.1 250.89 343.95 250.66 343.85C250.43 343.75 250.15 343.7 249.82 343.7C249.54 343.7 249.29 343.74 249.08 343.82C248.87 343.9 248.69 344.01 248.55 344.15C248.41 344.29 248.32 344.46 248.27 344.65H246.8C246.85 344.24 247 343.87 247.27 343.54C247.53 343.21 247.89 342.96 248.33 342.78C248.78 342.6 249.29 342.51 249.87 342.51C250.35 342.51 250.81 342.58 251.25 342.73C251.69 342.88 252.06 343.15 252.36 343.54C252.66 343.93 252.82 344.46 252.82 345.13V350.11H251.38V349.08H251.32C251.22 349.29 251.07 349.48 250.87 349.66C250.68 349.84 250.43 349.98 250.13 350.1C249.83 350.22 249.48 350.27 249.09 350.27C248.61 350.27 248.18 350.18 247.8 350C247.42 349.82 247.11 349.56 246.89 349.22C246.67 348.88 246.56 348.47 246.56 347.99C246.56 347.22 246.82 346.67 247.35 346.33C247.88 346 248.55 345.8 249.37 345.74C249.6 345.72 249.87 345.71 250.17 345.69C250.48 345.67 250.77 345.66 251.04 345.65C251.22 345.65 251.34 345.64 251.43 345.64L251.45 346.72C251.27 346.72 250.99 346.74 250.6 346.77L250.61 346.76Z" fill="#4361EE"/>
<path d="M258.92 350.1H257.44V340.09H258.92V350.1Z" fill="#4361EE"/>
<path d="M269.45 340.09H277.21V341.4H274.1V350.1H272.58V341.4H269.46V340.09H269.45Z" fill="#4361EE"/>
<path d="M281.7 349.77C281.17 349.45 280.76 348.99 280.47 348.41C280.18 347.83 280.04 347.15 280.04 346.38C280.04 345.61 280.18 344.93 280.47 344.34C280.76 343.75 281.17 343.3 281.7 342.98C282.23 342.66 282.85 342.5 283.54 342.5C284.23 342.5 284.85 342.66 285.38 342.98C285.91 343.3 286.32 343.76 286.61 344.34C286.9 344.92 287.04 345.61 287.04 346.38C287.04 347.15 286.9 347.82 286.61 348.41C286.32 349 285.91 349.45 285.38 349.77C284.85 350.09 284.24 350.25 283.54 350.25C282.84 350.25 282.23 350.09 281.7 349.77ZM284.65 348.67C284.95 348.44 285.18 348.12 285.33 347.72C285.48 347.32 285.56 346.87 285.56 346.38C285.56 345.89 285.48 345.44 285.33 345.04C285.18 344.64 284.95 344.32 284.65 344.08C284.35 343.84 283.98 343.72 283.54 343.72C283.1 343.72 282.72 343.84 282.42 344.07C282.12 344.31 281.89 344.63 281.74 345.03C281.59 345.43 281.51 345.88 281.51 346.37C281.51 346.86 281.59 347.31 281.74 347.71C281.89 348.11 282.12 348.43 282.42 348.66C282.72 348.89 283.09 349.01 283.54 349.01C283.99 349.01 284.35 348.89 284.65 348.66V348.67Z" fill="#4361EE"/>
<path d="M291.33 340.09H292.81V350.1H291.33V340.09ZM292.68 345.76H292.93L295.91 342.59H297.67L294.26 346.21H294.03L292.69 347.55V345.76H292.68ZM293.38 346.54L294.4 345.5L297.87 350.09H296.07L293.39 346.53L293.38 346.54Z" fill="#4361EE"/>
<path d="M302.69 349.78C302.15 349.46 301.74 349.01 301.45 348.43C301.16 347.85 301.02 347.17 301.02 346.4C301.02 345.63 301.16 344.96 301.45 344.37C301.74 343.78 302.15 343.32 302.67 342.99C303.19 342.66 303.8 342.5 304.49 342.5C305.1 342.5 305.65 342.63 306.15 342.89C306.65 343.15 307.06 343.57 307.36 344.13C307.67 344.69 307.82 345.41 307.82 346.27V346.79H301.84V345.69H306.37C306.37 345.31 306.29 344.97 306.14 344.67C305.98 344.37 305.77 344.14 305.48 343.97C305.2 343.8 304.87 343.72 304.5 343.72C304.1 343.72 303.75 343.82 303.44 344.01C303.13 344.21 302.9 344.46 302.73 344.79C302.56 345.11 302.48 345.46 302.47 345.84V346.7C302.47 347.19 302.56 347.61 302.73 347.97C302.91 348.32 303.15 348.59 303.47 348.78C303.79 348.97 304.16 349.06 304.58 349.06C304.85 349.06 305.09 349.02 305.31 348.95C305.53 348.88 305.71 348.78 305.86 348.66C306.01 348.54 306.13 348.39 306.21 348.24H307.71C307.6 348.65 307.4 349 307.12 349.31C306.84 349.62 306.48 349.86 306.04 350.02C305.6 350.19 305.12 350.27 304.58 350.27C303.85 350.27 303.22 350.11 302.68 349.79L302.69 349.78Z" fill="#4361EE"/>
<path d="M313.59 350.1H312.11V342.59H313.53V343.82H313.62C313.74 343.55 313.9 343.31 314.11 343.12C314.31 342.92 314.56 342.77 314.85 342.66C315.14 342.55 315.47 342.5 315.84 342.5C316.35 342.5 316.8 342.61 317.19 342.82C317.57 343.03 317.87 343.36 318.08 343.78C318.29 344.2 318.4 344.72 318.4 345.33V350.1H316.92V345.51C316.92 345.15 316.86 344.84 316.73 344.58C316.6 344.32 316.42 344.12 316.19 343.98C315.95 343.84 315.67 343.77 315.34 343.77C315.01 343.77 314.7 343.84 314.44 343.99C314.18 344.14 313.97 344.35 313.82 344.64C313.67 344.92 313.6 345.26 313.6 345.65V350.1H313.59Z" fill="#4361EE"/>
<path d="M314.52 247.31H92.6201V46.94H110.56V229.37H314.52V247.31Z" fill="#4361EE"/>
<path d="M148.38 46.94H130.44V206.13H148.38V46.94Z" fill="#4361EE"/>
<path d="M315.12 205.44H167.98V45.74H252.35C286.96 45.74 315.12 73.9 315.12 108.51V205.44ZM185.93 187.5H297.18V108.51C297.18 83.8 277.07 63.69 252.36 63.69H185.93V187.5Z" fill="#4361EE"/>
<path d="M319.12 328.81H91.1201V331.81H319.12V328.81Z" fill="#4361EE"/>
</svg>
