<svg width="137" height="36" viewBox="0 0 137 36" fill="none" xmlns="http://www.w3.org/2000/svg">
<g clip-path="url(#clip0_79_50)">
<path d="M49.2148 1.50623H52.3478V19.6173H61.6876V22.3435H49.2148V1.50623V1.50623Z" fill="white"/>
<path d="M71.1526 1.50623L76.5237 10.9602H76.7458L82.117 1.50623H85.6836L78.2076 14.1757V22.3456H75.0641V14.1757L67.5859 1.50623H71.1526V1.50623Z" fill="white"/>
<path d="M97.2482 22.3456H94.1152V1.50623H97.2482V22.3456ZM95.7061 22.3456V19.5789H100.644C102.194 19.5789 103.491 19.2819 104.532 18.6879C105.573 18.094 106.351 17.2287 106.865 16.0878C107.379 14.9491 107.635 13.5518 107.635 11.896C107.635 10.2402 107.379 8.86646 106.869 7.73412C106.359 6.60177 105.598 5.74077 104.587 5.15536C103.576 4.56783 102.321 4.27513 100.823 4.27513H95.5939V1.50623H101.014C103.03 1.50623 104.764 1.92071 106.222 2.74753C107.68 3.57436 108.794 4.77079 109.567 6.33471C110.339 7.89863 110.726 9.75311 110.726 11.896C110.726 14.0389 110.337 15.9255 109.556 17.4915C108.775 19.0576 107.644 20.2583 106.156 21.0936C104.669 21.929 102.888 22.3456 100.811 22.3456H95.7018H95.7061Z" fill="white"/>
<path d="M117.492 22.3456L124.907 1.50623H128.543L135.958 22.3456H132.624L126.8 5.31133H126.64L120.816 22.3456H117.49H117.492ZM132.091 14.1842V16.8399H121.362V14.1842H132.091V14.1842Z" fill="white"/>
<path d="M39.2417 36H0V0.213654H3.17318V32.7953H39.2417V36Z" fill="white"/>
<path d="M9.86263 0.213654H6.68945V28.6462H9.86263V0.213654Z" fill="white"/>
<path d="M39.3482 28.5223H13.3281V0H28.2484C34.3684 0 39.3482 5.02932 39.3482 11.2102V28.5223ZM16.5013 25.3175H36.175V11.2102C36.175 6.7962 32.6189 3.20475 28.2484 3.20475H16.5013V25.3175Z" fill="white"/>
<path d="M136.976 26.3858H48.6816V27.454H136.976V26.3858Z" fill="white"/>
<path d="M48.8672 30.9465H50.2315C50.5173 30.9465 50.7574 31.0003 50.9594 31.1081C51.1576 31.2159 51.3062 31.3622 51.4053 31.5507C51.5044 31.7393 51.5539 31.9549 51.5539 32.1974C51.5539 32.4398 51.5044 32.6554 51.4053 32.844C51.3062 33.0326 51.1576 33.1788 50.9594 33.2904C50.7612 33.3982 50.5173 33.4521 50.2315 33.4521H49.2902V32.9556H50.1705C50.3535 32.9556 50.5021 32.9248 50.6202 32.8594C50.7384 32.7939 50.826 32.7054 50.8832 32.5938C50.9403 32.4822 50.967 32.3513 50.967 32.2012C50.967 32.0511 50.9403 31.9202 50.8832 31.8086C50.826 31.697 50.7384 31.6085 50.6202 31.5469C50.5021 31.4853 50.3497 31.4507 50.1667 31.4507H49.4426V34.7992H48.8672V30.9465V30.9465Z" fill="white"/>
<path d="M53.7574 34.7992H53.1934V30.9465H53.7574V34.7992Z" fill="white"/>
<path d="M56.9243 33.5098C56.7757 33.5214 56.6461 33.5291 56.5356 33.5368C56.345 33.5522 56.2002 33.5945 56.0935 33.6676C55.9906 33.7408 55.9373 33.8485 55.9373 33.9871C55.9373 34.0795 55.9601 34.1526 56.0059 34.218C56.0516 34.2834 56.1164 34.3296 56.1964 34.3604C56.2764 34.3912 56.3717 34.4066 56.4784 34.4066C56.627 34.4066 56.7566 34.3758 56.8671 34.3181C56.9776 34.2565 57.0615 34.1795 57.1225 34.0794C57.1796 33.9794 57.2101 33.8716 57.2101 33.7561V32.844C57.2101 32.7362 57.1873 32.64 57.1415 32.563C57.0958 32.486 57.031 32.4283 56.9434 32.3898C56.8557 32.3513 56.749 32.3321 56.6232 32.3321C56.5165 32.3321 56.4213 32.3475 56.3412 32.3783C56.2612 32.409 56.1926 32.4514 56.1392 32.5053C56.0859 32.5591 56.0516 32.6246 56.0325 32.6977H55.4723C55.4914 32.5399 55.5485 32.3975 55.6514 32.2705C55.7505 32.1435 55.8877 32.0472 56.0554 31.978C56.2269 31.9087 56.4213 31.8741 56.6423 31.8741C56.8252 31.8741 57.0005 31.901 57.1682 31.9587C57.3359 32.0165 57.4769 32.1204 57.5912 32.2705C57.7055 32.4206 57.7665 32.6246 57.7665 32.8825V34.7992H57.2177V34.4028H57.1949C57.1568 34.4836 57.0996 34.5567 57.0234 34.626C56.951 34.6953 56.8557 34.7492 56.7414 34.7953C56.627 34.8415 56.4937 34.8608 56.345 34.8608C56.1621 34.8608 55.9982 34.8261 55.8534 34.7569C55.7086 34.6876 55.5905 34.5875 55.5066 34.4566C55.4228 34.3258 55.3809 34.168 55.3809 33.9832C55.3809 33.6869 55.4799 33.4752 55.6819 33.3443C55.8839 33.2173 56.1392 33.1403 56.4517 33.1172C56.5394 33.1095 56.6423 33.1057 56.7566 33.098C56.8748 33.0903 56.9853 33.0864 57.0882 33.0826C57.1568 33.0826 57.2025 33.0788 57.2368 33.0788L57.2444 33.4944C57.1758 33.4944 57.0691 33.5021 56.9205 33.5137L56.9243 33.5098Z" fill="white"/>
<path d="M60.8632 32.3628H59.2969V31.9087H60.8632V32.3628ZM60.2801 31.2159V33.9486C60.2801 34.0525 60.2953 34.1295 60.3258 34.1872C60.3563 34.2449 60.3982 34.2834 60.444 34.3027C60.4897 34.3219 60.5507 34.3335 60.6193 34.3335C60.6688 34.3335 60.7603 34.3335 60.8975 34.3219V34.8107C60.7946 34.8261 60.6803 34.8338 60.5507 34.8338C60.3982 34.8338 60.2572 34.8069 60.1315 34.7492C60.0057 34.6914 59.9028 34.6067 59.8266 34.4913C59.7504 34.3758 59.7123 34.2334 59.7123 34.0679V31.2197H60.2763L60.2801 31.2159Z" fill="white"/>
<path d="M63.856 32.3629H62.2363V31.9087H63.856V32.3629ZM62.7851 31.1389C62.8537 31.0158 62.9528 30.9234 63.0785 30.8618C63.2081 30.8002 63.3568 30.7656 63.5321 30.7656C63.5968 30.7656 63.6616 30.7656 63.7302 30.7771C63.7988 30.7848 63.8598 30.7925 63.9132 30.8041V31.2775C63.8293 31.2659 63.7493 31.2582 63.6769 31.2582C63.5282 31.2582 63.4177 31.289 63.3453 31.3545C63.2767 31.4199 63.2386 31.52 63.2386 31.6585V34.7992H62.6746V31.5777C62.6746 31.4083 62.7089 31.2621 62.7775 31.1389H62.7851Z" fill="white"/>
<path d="M65.8338 34.6722C65.6318 34.549 65.4756 34.372 65.365 34.1487C65.2545 33.9255 65.2012 33.6638 65.2012 33.3674C65.2012 33.0711 65.2545 32.8093 65.365 32.5822C65.4756 32.3552 65.6318 32.182 65.8338 32.0588C66.0358 31.9356 66.272 31.8741 66.535 31.8741C66.798 31.8741 67.0342 31.9356 67.2362 32.0588C67.4382 32.182 67.5944 32.359 67.705 32.5822C67.8155 32.8055 67.8688 33.0711 67.8688 33.3674C67.8688 33.6638 67.8155 33.9217 67.705 34.1487C67.5944 34.3758 67.4382 34.549 67.2362 34.6722C67.0342 34.7953 66.8018 34.8569 66.535 34.8569C66.2682 34.8569 66.0358 34.7953 65.8338 34.6722ZM66.958 34.2488C67.0723 34.1603 67.16 34.0371 67.2172 33.8832C67.2743 33.7292 67.3048 33.556 67.3048 33.3674C67.3048 33.1788 67.2743 33.0056 67.2172 32.8517C67.16 32.6977 67.0723 32.5745 66.958 32.4822C66.8437 32.3898 66.7027 32.3436 66.535 32.3436C66.3673 32.3436 66.2225 32.3898 66.1082 32.4783C65.9938 32.5707 65.9062 32.6939 65.849 32.8478C65.7919 33.0018 65.7614 33.175 65.7614 33.3636C65.7614 33.5522 65.7919 33.7254 65.849 33.8793C65.9062 34.0333 65.9938 34.1564 66.1082 34.245C66.2225 34.3335 66.3635 34.3797 66.535 34.3797C66.7065 34.3797 66.8437 34.3335 66.958 34.245V34.2488Z" fill="white"/>
<path d="M69.5078 31.9087H70.0528V32.3705H70.0833C70.1176 32.2666 70.1709 32.1781 70.2433 32.1011C70.3157 32.0241 70.3996 31.9664 70.4987 31.9241C70.5977 31.8856 70.7006 31.8625 70.8112 31.8625C70.895 31.8625 70.975 31.8663 71.0513 31.874V32.4167C71.0208 32.409 70.975 32.4013 70.9179 32.3936C70.8607 32.3859 70.8074 32.3821 70.7578 32.3821C70.6282 32.3821 70.5101 32.409 70.4072 32.4629C70.3043 32.5168 70.2205 32.5938 70.1633 32.6938C70.1023 32.7939 70.0756 32.9055 70.0756 33.0287V34.7876H69.5116V31.8971L69.5078 31.9087Z" fill="white"/>
<path d="M72.5449 31.9087H73.0861V32.3821H73.1204C73.1814 32.2205 73.2766 32.0973 73.4138 32.0049C73.551 31.9164 73.7111 31.8702 73.8978 31.8702C74.0236 31.8702 74.1379 31.8895 74.237 31.9279C74.3361 31.9664 74.4237 32.0242 74.4961 32.1011C74.5685 32.1781 74.6257 32.2705 74.6676 32.3783H74.6981C74.7438 32.2743 74.8086 32.182 74.8925 32.1088C74.9763 32.0319 75.0716 31.9741 75.1859 31.9318C75.3002 31.8895 75.4222 31.8702 75.5594 31.8702C75.7347 31.8702 75.8871 31.9087 76.0205 31.9818C76.1539 32.055 76.2568 32.1666 76.333 32.3167C76.4054 32.4668 76.4435 32.6477 76.4435 32.8632V34.7992H75.8795V32.9171C75.8795 32.7285 75.83 32.59 75.7309 32.5014C75.6318 32.4091 75.5022 32.3629 75.346 32.3629C75.2278 32.3629 75.1249 32.386 75.0373 32.436C74.9534 32.486 74.8848 32.5553 74.8391 32.6438C74.7934 32.7324 74.7705 32.8363 74.7705 32.9556V34.7953H74.2141V32.8786C74.2141 32.7747 74.1913 32.6823 74.1493 32.6053C74.1074 32.5284 74.0426 32.4668 73.9664 32.4244C73.8864 32.3821 73.7949 32.359 73.6958 32.359C73.5967 32.359 73.4939 32.386 73.4024 32.4398C73.3147 32.4937 73.2423 32.5707 73.189 32.6746C73.1356 32.7747 73.1089 32.8902 73.1089 33.0172V34.7953H72.5449V31.9048V31.9087Z" fill="white"/>
<path d="M81.9575 32.3629H80.3379V31.9087H81.9575V32.3629ZM80.8867 31.1389C80.9553 31.0158 81.0543 30.9234 81.1801 30.8618C81.3097 30.8002 81.4583 30.7656 81.6336 30.7656C81.6984 30.7656 81.7632 30.7656 81.8318 30.7771C81.9004 30.7848 81.9614 30.7925 82.0147 30.8041V31.2775C81.9309 31.2659 81.8508 31.2582 81.7784 31.2582C81.6298 31.2582 81.5193 31.289 81.4469 31.3545C81.3783 31.4199 81.3402 31.52 81.3402 31.6585V34.7992H80.7762V31.5777C80.7762 31.4083 80.8104 31.2621 80.879 31.1389H80.8867Z" fill="white"/>
<path d="M83.9393 34.6722C83.7373 34.549 83.581 34.372 83.4705 34.1487C83.36 33.9255 83.3066 33.6638 83.3066 33.3674C83.3066 33.0711 83.36 32.8093 83.4705 32.5822C83.581 32.3552 83.7373 32.182 83.9393 32.0588C84.1412 31.9356 84.3775 31.8741 84.6405 31.8741C84.9034 31.8741 85.1397 31.9356 85.3417 32.0588C85.5437 32.182 85.6999 32.359 85.8104 32.5822C85.921 32.8055 85.9743 33.0711 85.9743 33.3674C85.9743 33.6638 85.921 33.9217 85.8104 34.1487C85.6999 34.3758 85.5437 34.549 85.3417 34.6722C85.1397 34.7953 84.9072 34.8569 84.6405 34.8569C84.3737 34.8569 84.1412 34.7953 83.9393 34.6722ZM85.0635 34.2488C85.1778 34.1603 85.2655 34.0371 85.3226 33.8832C85.3798 33.7292 85.4103 33.556 85.4103 33.3674C85.4103 33.1788 85.3798 33.0056 85.3226 32.8517C85.2655 32.6977 85.1778 32.5745 85.0635 32.4822C84.9492 32.3898 84.8082 32.3436 84.6405 32.3436C84.4728 32.3436 84.328 32.3898 84.2136 32.4783C84.0993 32.5707 84.0117 32.6939 83.9545 32.8478C83.8973 33.0018 83.8669 33.175 83.8669 33.3636C83.8669 33.5522 83.8973 33.7254 83.9545 33.8793C84.0117 34.0333 84.0993 34.1564 84.2136 34.245C84.328 34.3335 84.469 34.3797 84.6405 34.3797C84.812 34.3797 84.9492 34.3335 85.0635 34.245V34.2488Z" fill="white"/>
<path d="M87.6094 31.9087H88.1543V32.3705H88.1848C88.2191 32.2666 88.2725 32.1781 88.3449 32.1011C88.4173 32.0241 88.5011 31.9664 88.6002 31.9241C88.6993 31.8856 88.8022 31.8625 88.9127 31.8625C88.9966 31.8625 89.0766 31.8663 89.1528 31.874V32.4167C89.1223 32.409 89.0766 32.4013 89.0194 32.3936C88.9623 32.3859 88.9089 32.3821 88.8594 32.3821C88.7298 32.3821 88.6117 32.409 88.5088 32.4629C88.4059 32.5168 88.322 32.5938 88.2649 32.6938C88.2039 32.7939 88.1772 32.9055 88.1772 33.0287V34.7876H87.6132V31.8971L87.6094 31.9087Z" fill="white"/>
<path d="M95.0447 31.6585C94.9761 31.5738 94.8846 31.5084 94.7703 31.4661C94.656 31.4237 94.5264 31.4006 94.3816 31.4006C94.2291 31.4006 94.0957 31.4237 93.9776 31.4738C93.8633 31.5238 93.7718 31.5892 93.7108 31.6778C93.6461 31.7624 93.6156 31.8625 93.6156 31.9703C93.6156 32.1319 93.6804 32.2589 93.8099 32.3436C93.9395 32.4321 94.1072 32.5014 94.3053 32.5514L94.675 32.6477C94.8694 32.6977 95.0485 32.7631 95.2085 32.844C95.3686 32.9248 95.502 33.0403 95.6087 33.1865C95.7154 33.3328 95.7688 33.5137 95.7688 33.733C95.7688 33.9524 95.7116 34.1487 95.6011 34.3181C95.4906 34.4874 95.3267 34.6221 95.1133 34.7184C94.8999 34.8146 94.6483 34.8646 94.3549 34.8646C94.0614 34.8646 93.8252 34.8184 93.6156 34.7261C93.406 34.6337 93.2421 34.5028 93.124 34.3335C93.0058 34.1641 92.9372 33.964 92.9258 33.733H93.505C93.5165 33.8678 93.5584 33.9794 93.6346 34.0717C93.7108 34.1641 93.8099 34.2334 93.9357 34.2796C94.0614 34.3258 94.1986 34.3489 94.3511 34.3489C94.5111 34.3489 94.656 34.3219 94.7855 34.2719C94.9151 34.218 95.0142 34.1449 95.0866 34.0525C95.159 33.9601 95.1933 33.8485 95.1933 33.7292C95.1933 33.6214 95.1628 33.5329 95.1018 33.4598C95.0409 33.3866 94.9608 33.3251 94.8579 33.2789C94.755 33.2327 94.6255 33.1865 94.4692 33.148L94.0195 33.0249C93.6994 32.9363 93.4517 32.8093 93.2802 32.6438C93.1087 32.4783 93.0249 32.2628 93.0249 32.0049C93.0249 31.7855 93.0858 31.5931 93.204 31.4276C93.3221 31.2582 93.486 31.1312 93.688 31.0388C93.8938 30.9465 94.1224 30.9003 94.3816 30.9003C94.6407 30.9003 94.8656 30.9465 95.0637 31.035C95.2657 31.1274 95.422 31.2544 95.5363 31.416C95.6506 31.5777 95.7078 31.7624 95.7116 31.9664H95.1514C95.1399 31.8509 95.098 31.7509 95.0294 31.6624L95.0447 31.6585Z" fill="white"/>
<path d="M97.9412 34.6722C97.7392 34.549 97.583 34.372 97.4725 34.1487C97.362 33.9255 97.3086 33.6638 97.3086 33.3674C97.3086 33.0711 97.362 32.8093 97.4725 32.5822C97.583 32.3552 97.7392 32.182 97.9412 32.0588C98.1432 31.9356 98.3795 31.8741 98.6424 31.8741C98.9054 31.8741 99.1417 31.9356 99.3436 32.0588C99.5456 32.182 99.7019 32.359 99.8124 32.5822C99.9229 32.8055 99.9763 33.0711 99.9763 33.3674C99.9763 33.6638 99.9229 33.9217 99.8124 34.1487C99.7019 34.3758 99.5456 34.549 99.3436 34.6722C99.1417 34.7953 98.9092 34.8569 98.6424 34.8569C98.3757 34.8569 98.1432 34.7953 97.9412 34.6722ZM99.0654 34.2488C99.1798 34.1603 99.2674 34.0371 99.3246 33.8832C99.3818 33.7292 99.4122 33.556 99.4122 33.3674C99.4122 33.1788 99.3818 33.0056 99.3246 32.8517C99.2674 32.6977 99.1798 32.5745 99.0654 32.4822C98.9511 32.3898 98.8101 32.3436 98.6424 32.3436C98.4747 32.3436 98.3299 32.3898 98.2156 32.4783C98.1013 32.5707 98.0136 32.6939 97.9565 32.8478C97.8993 33.0018 97.8688 33.175 97.8688 33.3636C97.8688 33.5522 97.8993 33.7254 97.9565 33.8793C98.0136 34.0333 98.1013 34.1564 98.2156 34.245C98.3299 34.3335 98.4709 34.3797 98.6424 34.3797C98.8139 34.3797 98.9511 34.3335 99.0654 34.245V34.2488Z" fill="white"/>
<path d="M102.109 34.6683C101.907 34.5413 101.751 34.3681 101.644 34.141C101.538 33.9139 101.484 33.6561 101.484 33.3674C101.484 33.0788 101.538 32.817 101.648 32.5899C101.759 32.3629 101.915 32.1858 102.113 32.0626C102.315 31.9356 102.548 31.8741 102.814 31.8741C103.028 31.8741 103.222 31.9125 103.394 31.9934C103.565 32.0742 103.706 32.1858 103.809 32.3359C103.912 32.4822 103.973 32.6554 103.992 32.8478H103.447C103.428 32.7554 103.39 32.6708 103.336 32.5938C103.283 32.5168 103.211 32.4591 103.123 32.4167C103.035 32.3744 102.936 32.3513 102.822 32.3513C102.67 32.3513 102.532 32.3937 102.418 32.4745C102.304 32.5553 102.212 32.6746 102.147 32.8247C102.083 32.9748 102.052 33.1519 102.052 33.3559C102.052 33.5598 102.083 33.7446 102.147 33.8986C102.212 34.0525 102.3 34.1718 102.418 34.2527C102.536 34.3373 102.67 34.3797 102.826 34.3797C102.933 34.3797 103.028 34.3604 103.115 34.3219C103.203 34.2834 103.276 34.2257 103.333 34.1526C103.39 34.0794 103.432 33.9909 103.455 33.887H104C103.981 34.0756 103.92 34.2411 103.817 34.3912C103.714 34.5375 103.58 34.6529 103.409 34.7376C103.237 34.8223 103.043 34.8608 102.822 34.8608C102.551 34.8608 102.315 34.7992 102.113 34.6722L102.109 34.6683Z" fill="white"/>
<path d="M105.72 31.4199C105.667 31.3891 105.621 31.3468 105.591 31.2967C105.556 31.2467 105.541 31.1889 105.541 31.1312C105.541 31.0735 105.556 31.0119 105.591 30.9619C105.625 30.908 105.667 30.8695 105.72 30.8387C105.773 30.8079 105.831 30.7964 105.895 30.7964C105.96 30.7964 106.017 30.8118 106.071 30.8387C106.124 30.8695 106.17 30.908 106.2 30.9619C106.231 31.0119 106.246 31.0696 106.246 31.1312C106.246 31.1928 106.231 31.2467 106.2 31.2967C106.17 31.3468 106.124 31.3891 106.071 31.4199C106.017 31.4507 105.956 31.4661 105.895 31.4661C105.834 31.4661 105.773 31.4507 105.72 31.4199ZM105.61 31.9087H106.174V34.7992H105.61V31.9087Z" fill="white"/>
<path d="M109.34 33.5098C109.192 33.5214 109.062 33.5291 108.952 33.5368C108.761 33.5522 108.616 33.5945 108.51 33.6676C108.407 33.7408 108.353 33.8485 108.353 33.9871C108.353 34.0795 108.376 34.1526 108.422 34.218C108.468 34.2834 108.532 34.3296 108.612 34.3604C108.692 34.3912 108.788 34.4066 108.894 34.4066C109.043 34.4066 109.173 34.3758 109.283 34.3181C109.394 34.2565 109.478 34.1795 109.538 34.0794C109.596 33.9794 109.626 33.8716 109.626 33.7561V32.844C109.626 32.7362 109.603 32.64 109.558 32.563C109.512 32.486 109.447 32.4283 109.359 32.3898C109.272 32.3513 109.165 32.3321 109.039 32.3321C108.933 32.3321 108.837 32.3475 108.757 32.3783C108.677 32.409 108.609 32.4514 108.555 32.5053C108.502 32.5591 108.468 32.6246 108.449 32.6977H107.888C107.907 32.5399 107.965 32.3975 108.067 32.2705C108.167 32.1435 108.304 32.0472 108.471 31.978C108.643 31.9087 108.837 31.8741 109.058 31.8741C109.241 31.8741 109.417 31.901 109.584 31.9587C109.752 32.0165 109.893 32.1204 110.007 32.2705C110.122 32.4206 110.183 32.6246 110.183 32.8825V34.7992H109.634V34.4028H109.611C109.573 34.4836 109.516 34.5567 109.439 34.626C109.367 34.6953 109.272 34.7492 109.157 34.7953C109.043 34.8415 108.91 34.8608 108.761 34.8608C108.578 34.8608 108.414 34.8261 108.269 34.7569C108.125 34.6876 108.006 34.5875 107.923 34.4566C107.839 34.3258 107.797 34.168 107.797 33.9832C107.797 33.6869 107.896 33.4752 108.098 33.3443C108.3 33.2173 108.555 33.1403 108.868 33.1172C108.955 33.1095 109.058 33.1057 109.173 33.098C109.291 33.0903 109.401 33.0864 109.504 33.0826C109.573 33.0826 109.619 33.0788 109.653 33.0788L109.66 33.4944C109.592 33.4944 109.485 33.5021 109.336 33.5137L109.34 33.5098Z" fill="white"/>
<path d="M112.505 34.7992H111.941V30.9465H112.505V34.7992Z" fill="white"/>
<path d="M116.523 30.9465H119.481V31.4507H118.296V34.7992H117.716V31.4507H116.527V30.9465H116.523Z" fill="white"/>
<path d="M121.187 34.6722C120.985 34.549 120.829 34.372 120.719 34.1487C120.608 33.9255 120.555 33.6638 120.555 33.3674C120.555 33.0711 120.608 32.8093 120.719 32.5822C120.829 32.3552 120.985 32.182 121.187 32.0588C121.389 31.9356 121.626 31.8741 121.889 31.8741C122.151 31.8741 122.388 31.9356 122.59 32.0588C122.792 32.182 122.948 32.359 123.058 32.5822C123.169 32.8055 123.222 33.0711 123.222 33.3674C123.222 33.6638 123.169 33.9217 123.058 34.1487C122.948 34.3758 122.792 34.549 122.59 34.6722C122.388 34.7953 122.155 34.8569 121.889 34.8569C121.622 34.8569 121.389 34.7953 121.187 34.6722ZM122.312 34.2488C122.426 34.1603 122.514 34.0371 122.571 33.8832C122.628 33.7292 122.658 33.556 122.658 33.3674C122.658 33.1788 122.628 33.0056 122.571 32.8517C122.514 32.6977 122.426 32.5745 122.312 32.4822C122.197 32.3898 122.056 32.3436 121.889 32.3436C121.721 32.3436 121.576 32.3898 121.462 32.4783C121.347 32.5707 121.26 32.6939 121.203 32.8478C121.145 33.0018 121.115 33.175 121.115 33.3636C121.115 33.5522 121.145 33.7254 121.203 33.8793C121.26 34.0333 121.347 34.1564 121.462 34.245C121.576 34.3335 121.717 34.3797 121.889 34.3797C122.06 34.3797 122.197 34.3335 122.312 34.245V34.2488Z" fill="white"/>
<path d="M124.857 30.9465H125.421V34.7992H124.857V30.9465ZM125.372 33.1288H125.467L126.603 31.9087H127.274L125.974 33.302H125.886L125.376 33.8177V33.1288H125.372ZM125.639 33.429L126.027 33.0287L127.35 34.7953H126.664L125.642 33.4251L125.639 33.429Z" fill="white"/>
<path d="M129.191 34.6722C128.985 34.549 128.829 34.3758 128.719 34.1526C128.608 33.9294 128.555 33.6676 128.555 33.3713C128.555 33.0749 128.608 32.817 128.719 32.5899C128.829 32.3629 128.985 32.1858 129.183 32.0588C129.382 31.9318 129.614 31.8702 129.877 31.8702C130.11 31.8702 130.319 31.9202 130.51 32.0203C130.7 32.1204 130.856 32.282 130.971 32.4976C131.089 32.7131 131.146 32.9902 131.146 33.3212V33.5214H128.867V33.098H130.594C130.594 32.9517 130.563 32.8209 130.506 32.7054C130.445 32.59 130.365 32.5014 130.254 32.436C130.148 32.3706 130.022 32.3398 129.881 32.3398C129.728 32.3398 129.595 32.3783 129.477 32.4514C129.359 32.5284 129.271 32.6246 129.206 32.7516C129.142 32.8748 129.111 33.0095 129.107 33.1557V33.4867C129.107 33.6753 129.142 33.837 129.206 33.9755C129.275 34.1103 129.366 34.2142 129.488 34.2873C129.61 34.3604 129.751 34.3951 129.911 34.3951C130.014 34.3951 130.106 34.3797 130.19 34.3527C130.273 34.3258 130.342 34.2873 130.399 34.2411C130.456 34.1949 130.502 34.1372 130.533 34.0795H131.104C131.062 34.2373 130.986 34.372 130.879 34.4913C130.773 34.6106 130.635 34.703 130.468 34.7646C130.3 34.83 130.117 34.8608 129.911 34.8608C129.633 34.8608 129.393 34.7992 129.187 34.676L129.191 34.6722Z" fill="white"/>
<path d="M133.345 34.7992H132.781V31.9087H133.322V32.3821H133.357C133.402 32.2782 133.463 32.1858 133.543 32.1127C133.62 32.0357 133.715 31.978 133.825 31.9356C133.936 31.8933 134.062 31.8741 134.203 31.8741C134.397 31.8741 134.569 31.9164 134.717 31.9972C134.862 32.078 134.976 32.2051 135.056 32.3667C135.136 32.5284 135.178 32.7285 135.178 32.9633V34.7992H134.614V33.0326C134.614 32.894 134.591 32.7747 134.542 32.6746C134.492 32.5745 134.424 32.4976 134.336 32.4437C134.245 32.3898 134.138 32.3629 134.012 32.3629C133.886 32.3629 133.768 32.3898 133.669 32.4475C133.57 32.5053 133.49 32.5861 133.433 32.6977C133.376 32.8055 133.349 32.9363 133.349 33.0864V34.7992H133.345Z" fill="white"/>
</g>
<defs>
<clipPath id="clip0_79_50">
<rect width="136.976" height="36" fill="white"/>
</clipPath>
</defs>
</svg>
