<svg width="365" height="45" viewBox="0 0 365 45" fill="none" xmlns="http://www.w3.org/2000/svg">
<path fill-rule="evenodd" clip-rule="evenodd" d="M0.113281 44L13.827 0.719992H29.5103L43.2869 44H30.6177L28.1577 35.9H14.9458L12.5458 44H0.113281ZM14.1991 34.9H28.8991L31.3591 43H41.9191L28.7791 1.71999H14.5591L1.47914 43H11.7991L14.1991 34.9ZM26.6191 27.04L21.6991 10.72H21.2791L16.4191 27.04H26.6191ZM17.7603 26.04H25.2732L21.4937 13.5032L17.7603 26.04ZM45.6849 44V0.719992H67.5049C70.2299 0.719992 72.5581 1.11063 74.4452 1.9436C76.387 2.78297 77.8627 4.08544 78.8181 5.8523C79.8048 7.56343 80.2649 9.66516 80.2649 12.1C80.2649 14.1039 79.9944 15.8565 79.4153 17.3265C78.8307 18.8106 77.9191 20.0258 76.6802 20.9435L76.6749 20.9474C76.177 21.3112 75.6261 21.6293 75.0252 21.9041C75.7138 22.1907 76.338 22.5273 76.8934 22.9173C78.191 23.7999 79.1309 25.0273 79.7173 26.5585C80.2981 28.0353 80.5649 29.8702 80.5649 32.02C80.5649 33.8188 80.3356 35.4611 79.8605 36.9352C79.4149 38.4428 78.6525 39.7466 77.572 40.8271C76.5172 41.882 75.1306 42.6722 73.4612 43.2287L73.4536 43.2312L73.4461 43.2336C71.798 43.754 69.8091 44 67.5049 44H45.6849ZM78.9049 36.64C79.3449 35.28 79.5649 33.74 79.5649 32.02C79.5649 29.94 79.3049 28.24 78.7849 26.92C78.2649 25.56 77.4449 24.5 76.3249 23.74C75.5774 23.2139 74.667 22.7837 73.5936 22.4493C73.1325 22.3056 72.6413 22.1797 72.1201 22.0714C72.1017 22.0676 72.0834 22.0638 72.0649 22.06V21.82C72.0821 21.8162 72.0992 21.8124 72.1163 21.8086C72.6347 21.6931 73.1228 21.5574 73.5807 21.4016C74.551 21.0714 75.3858 20.6509 76.0849 20.14C77.1649 19.34 77.9649 18.28 78.4849 16.96C79.0049 15.64 79.2649 14.02 79.2649 12.1C79.2649 9.77999 78.8249 7.85999 77.9449 6.33999C77.1049 4.77999 75.8049 3.61999 74.0449 2.85999C72.3249 2.09999 70.1449 1.71999 67.5049 1.71999H46.6849V43H67.5049C69.7449 43 71.6249 42.76 73.1449 42.28C74.7049 41.76 75.9449 41.04 76.8649 40.12C77.8249 39.16 78.5049 38 78.9049 36.64ZM66.7681 27.149L66.7392 27.1383C66.1423 26.9184 65.2 26.78 63.8449 26.78H58.0649V34.2H63.8449C65.2337 34.2 66.2058 34.0832 66.8209 33.8935C67.3344 33.6993 67.6204 33.4073 67.7802 33.0192C67.9877 32.5154 68.1249 31.7067 68.1249 30.52C68.1249 29.2883 67.9866 28.4619 67.7802 27.9607C67.6314 27.5993 67.3532 27.3245 66.7976 27.1578L66.7681 27.149ZM67.1449 34.84C66.3849 35.08 65.2849 35.2 63.8449 35.2H57.0649V25.78H63.8449C65.2449 25.78 66.3249 25.92 67.0849 26.2C67.8849 26.44 68.4249 26.9 68.7049 27.58C68.9849 28.26 69.1249 29.24 69.1249 30.52C69.1249 31.76 68.9849 32.72 68.7049 33.4C68.4249 34.08 67.9049 34.56 67.1449 34.84ZM67.499 16.3557L67.5105 16.3328C67.7309 15.892 67.8849 15.1703 67.8849 14.08C67.8849 12.8874 67.7461 12.1118 67.5488 11.6608L67.538 11.6362L67.5286 11.6111C67.4152 11.3087 67.1855 11.0583 66.6638 10.8936L66.6562 10.8912L66.6487 10.8887C66.0868 10.7014 65.1193 10.58 63.6649 10.58H58.0649V17.52H63.6649C64.9679 17.52 65.903 17.4043 66.5209 17.2135C67.0557 17.0117 67.3375 16.725 67.4888 16.3792L67.499 16.3557ZM63.6649 18.52C65.0249 18.52 66.0849 18.4 66.8449 18.16C67.6049 17.88 68.1249 17.42 68.4049 16.78C68.7249 16.14 68.8849 15.24 68.8849 14.08C68.8849 12.84 68.7449 11.9 68.4649 11.26C68.2249 10.62 67.7249 10.18 66.9649 9.93999C66.2449 9.69999 65.1449 9.57999 63.6649 9.57999H57.0649V18.52H63.6649ZM94.9143 43.8626L94.9041 43.8606C92.6199 43.4037 90.7441 42.6816 89.3444 41.6431L89.3362 41.637L89.3281 41.6307C87.9282 40.547 86.903 39.1087 86.2439 37.3511L86.2387 37.3372L86.2339 37.3231C85.637 35.5751 85.2662 33.4628 85.1024 31.0065L85.1019 30.9982L85.1015 30.9899C84.9804 28.5684 84.9202 25.6909 84.9202 22.36C84.9202 19.0291 84.9804 16.1516 85.1015 13.7301L85.1019 13.7218L85.1024 13.7135C85.2662 11.2578 85.637 9.16204 86.2364 7.44964L86.241 7.43637C86.8978 5.64124 87.9236 4.19365 89.3362 3.14299C90.7431 2.05656 92.627 1.33405 94.9143 0.917395C97.2405 0.461159 100.169 0.23999 103.68 0.23999C107.15 0.23999 110.039 0.460938 112.326 0.917379C114.65 1.33352 116.569 2.054 118.012 3.13391C119.472 4.18621 120.506 5.64236 121.125 7.45367C121.724 9.16533 122.094 11.2597 122.258 13.7135C122.42 16.1421 122.5 19.0255 122.5 22.36C122.5 25.6945 122.42 28.5779 122.258 31.0065C122.094 33.4628 121.723 35.5751 121.127 37.3231L121.124 37.3304C120.503 39.1058 119.469 40.5538 118.02 41.64L118.012 41.6461L118.004 41.652C116.567 42.6847 114.656 43.405 112.333 43.8612L112.319 43.864C110.038 44.2788 107.152 44.48 103.68 44.48C100.169 44.48 97.2443 44.2787 94.9244 43.8644L94.9143 43.8626ZM117.42 3.93999C116.14 2.97999 114.38 2.29999 112.14 1.89999C109.94 1.45999 107.12 1.23999 103.68 1.23999C100.2 1.23999 97.3402 1.45999 95.1002 1.89999C92.9002 2.29999 91.1802 2.97999 89.9402 3.93999C88.7002 4.85999 87.7802 6.13999 87.1802 7.77999C86.6202 9.37999 86.2602 11.38 86.1002 13.78C85.9802 16.18 85.9202 19.04 85.9202 22.36C85.9202 25.68 85.9802 28.54 86.1002 30.94C86.2602 33.34 86.6202 35.36 87.1802 37C87.7802 38.6 88.7002 39.88 89.9402 40.84C91.1802 41.76 92.9002 42.44 95.1002 42.88C97.3402 43.28 100.2 43.48 103.68 43.48C107.12 43.48 109.94 43.28 112.14 42.88C114.38 42.44 116.14 41.76 117.42 40.84C118.7 39.88 119.62 38.6 120.18 37C120.74 35.36 121.1 33.34 121.26 30.94C121.42 28.54 121.5 25.68 121.5 22.36C121.5 19.04 121.42 16.18 121.26 13.78C121.1 11.38 120.74 9.37999 120.18 7.77999C119.62 6.13999 118.7 4.85999 117.42 3.93999ZM109.881 28.6234L109.881 28.6113C109.96 26.9938 110 24.9116 110 22.36C110 19.8084 109.96 17.7262 109.881 16.1087L109.881 16.0965L109.881 16.0844C109.841 14.4745 109.704 13.2832 109.493 12.4724C109.284 11.6739 108.991 11.2483 108.711 11.0326L108.692 11.0184L108.674 11.0034C108.36 10.737 107.859 10.5246 107.074 10.4562L107.049 10.4541L107.025 10.4508C106.209 10.3395 105.099 10.28 103.68 10.28C102.304 10.28 101.191 10.3392 100.33 10.4516L100.308 10.4544L100.287 10.4562C99.501 10.5246 99.001 10.737 98.6862 11.0034L98.6684 11.0184L98.6499 11.0326C98.3695 11.2483 98.0762 11.6739 97.8679 12.4724C97.6539 13.2927 97.4985 14.4896 97.4196 16.0965C97.3801 17.7234 97.3602 19.8105 97.3602 22.36C97.3602 24.9095 97.3801 26.9965 97.4196 28.6235C97.4985 30.2304 97.6539 31.4273 97.8679 32.2476C98.0719 33.0298 98.3635 33.4954 98.6687 33.7616C99.0009 34.0102 99.5217 34.2205 100.309 34.3256C101.186 34.401 102.307 34.44 103.68 34.44C105.095 34.44 106.215 34.4008 107.05 34.3259C107.838 34.2209 108.359 34.0104 108.692 33.7616C108.997 33.4954 109.289 33.0298 109.493 32.2476C109.704 31.4368 109.841 30.2455 109.881 28.6356L109.881 28.6234ZM109.32 34.54C108.8 34.94 108.08 35.2 107.16 35.32C106.28 35.4 105.12 35.44 103.68 35.44C102.28 35.44 101.12 35.4 100.2 35.32C99.2802 35.2 98.5602 34.94 98.0402 34.54C97.5202 34.1 97.1402 33.42 96.9002 32.5C96.6602 31.58 96.5002 30.3 96.4202 28.66C96.3802 27.02 96.3602 24.92 96.3602 22.36C96.3602 19.8 96.3802 17.7 96.4202 16.06C96.5002 14.42 96.6602 13.14 96.9002 12.22C97.1402 11.3 97.5202 10.64 98.0402 10.24C98.5602 9.79999 99.2802 9.53999 100.2 9.45999C101.12 9.33999 102.28 9.27999 103.68 9.27999C105.12 9.27999 106.28 9.33999 107.16 9.45999C108.08 9.53999 108.8 9.79999 109.32 10.24C109.84 10.64 110.22 11.3 110.46 12.22C110.7 13.14 110.84 14.42 110.88 16.06C110.96 17.7 111 19.8 111 22.36C111 24.92 110.96 27.02 110.88 28.66C110.84 30.3 110.7 31.58 110.46 32.5C110.22 33.42 109.84 34.1 109.32 34.54ZM137.645 43.9231L137.635 43.9213C135.512 43.5049 133.746 42.8454 132.394 41.8992C131.029 40.9433 130.013 39.6478 129.345 38.0446L129.341 38.0357C128.694 36.4392 128.278 34.5172 128.072 32.2922L128.071 32.2824L128.07 32.2725C127.908 30.0416 127.828 27.4162 127.828 24.4V0.719992H140.268V26.62C140.268 28.5192 140.307 30.0486 140.384 31.2151C140.497 32.2861 140.709 32.9868 140.953 33.4047C141.184 33.7406 141.556 34.009 142.174 34.161C142.967 34.3025 144.071 34.38 145.508 34.38C146.948 34.38 148.029 34.302 148.778 34.162C149.407 34.0079 149.742 33.7394 149.93 33.4255L149.942 33.4051L149.956 33.3853C150.217 32.9931 150.436 32.3131 150.51 31.2312L150.511 31.2158L150.513 31.2005C150.628 30.047 150.688 28.5237 150.688 26.62V0.719992H163.128V24.4C163.128 27.4166 163.027 30.0455 162.824 32.2823C162.659 34.5051 162.265 36.4288 161.617 38.0292C160.989 39.6398 159.99 40.9407 158.621 41.8992C157.27 42.8454 155.504 43.5049 153.38 43.9213L153.371 43.9231L153.362 43.9248C151.244 44.2985 148.621 44.48 145.508 44.48C142.395 44.48 139.772 44.2985 137.654 43.9248L137.645 43.9231ZM160.688 37.66C161.288 36.18 161.668 34.36 161.828 32.2C162.028 30 162.128 27.4 162.128 24.4V1.71999H151.688V26.62C151.688 28.54 151.628 30.1 151.508 31.3C151.428 32.46 151.188 33.34 150.788 33.94C150.428 34.54 149.828 34.94 148.988 35.14C148.148 35.3 146.988 35.38 145.508 35.38C144.028 35.38 142.848 35.3 141.968 35.14C141.128 34.94 140.508 34.54 140.108 33.94C139.748 33.34 139.508 32.46 139.388 31.3C139.308 30.1 139.268 28.54 139.268 26.62V1.71999H128.828V24.4C128.828 27.4 128.908 30 129.068 32.2C129.268 34.36 129.668 36.18 130.268 37.66C130.868 39.1 131.768 40.24 132.968 41.08C134.168 41.92 135.788 42.54 137.828 42.94C139.868 43.3 142.428 43.48 145.508 43.48C148.588 43.48 151.148 43.3 153.188 42.94C155.228 42.54 156.848 41.92 158.048 41.08C159.248 40.24 160.128 39.1 160.688 37.66ZM177.594 44V11.12H166.314V0.719992H201.374V11.12H190.034V44H177.594ZM189.034 10.12H200.374V1.71999H167.314V10.12H178.594V43H189.034V10.12ZM219.005 44V0.719992H231.445V33.6H247.525V44H219.005ZM230.445 34.6V1.71999H220.005V43H246.525V34.6H230.445ZM255.969 44V29.0789L241.601 0.719992H254.601L262.393 17.1577L270.072 0.719992H282.839L268.409 29.0798V44H255.969ZM267.409 28.84L281.209 1.71999H270.709L262.609 19.06H262.189L253.969 1.71999H243.229L256.969 28.84V43H267.409V28.84ZM284.572 44V0.719992H300.032C303.736 0.719992 306.796 0.920576 309.193 1.33307C311.591 1.70605 313.569 2.38048 315.055 3.41365C316.56 4.41952 317.624 5.835 318.25 7.61472C318.895 9.29542 319.286 11.357 319.449 13.7724C319.611 16.1618 319.692 19.0256 319.692 22.36C319.692 25.6943 319.611 28.5582 319.449 30.9476C319.285 33.3677 318.893 35.4482 318.25 37.1656C317.622 38.9111 316.557 40.3195 315.063 41.3604L315.055 41.3663L315.046 41.372C313.568 42.3576 311.598 43.0322 309.202 43.4454L309.193 43.4469L309.185 43.4482C306.794 43.8191 303.738 44 300.032 44H284.572ZM317.312 36.82C317.912 35.22 318.292 33.24 318.452 30.88C318.612 28.52 318.692 25.68 318.692 22.36C318.692 19.04 318.612 16.2 318.452 13.84C318.292 11.48 317.912 9.51999 317.312 7.95999C316.752 6.35999 315.812 5.11999 314.492 4.23999C313.172 3.31999 311.352 2.67999 309.032 2.31999C306.712 1.91999 303.712 1.71999 300.032 1.71999H285.572V43H300.032C303.712 43 306.712 42.82 309.032 42.46C311.352 42.06 313.172 41.42 314.492 40.54C315.812 39.62 316.752 38.38 317.312 36.82ZM306.631 31.9228L306.635 31.9088C306.878 31.1115 307.033 29.9728 307.072 28.4544L307.072 28.4422L307.073 28.4301C307.152 26.8531 307.192 24.8313 307.192 22.36C307.192 19.8884 307.152 17.8873 307.073 16.3512L307.072 16.3381L307.072 16.325C307.033 14.7612 306.877 13.6307 306.639 12.8832L306.635 12.8712C306.4 12.0984 306.069 11.6664 305.717 11.432C305.309 11.1602 304.676 10.9494 303.735 10.877C302.731 10.7998 301.419 10.76 299.792 10.76H297.012V33.96H299.792C301.408 33.96 302.714 33.9207 303.716 33.8444C304.662 33.7335 305.319 33.5231 305.749 33.2673C306.13 33.0267 306.44 32.6231 306.627 31.9369L306.631 31.9228ZM306.272 34.12C305.672 34.48 304.852 34.72 303.812 34.84C302.772 34.92 301.432 34.96 299.792 34.96H296.012V9.75999H299.792C301.432 9.75999 302.772 9.79999 303.812 9.87999C304.852 9.95999 305.672 10.2 306.272 10.6C306.872 11 307.312 11.66 307.592 12.58C307.872 13.46 308.032 14.7 308.072 16.3C308.152 17.86 308.192 19.88 308.192 22.36C308.192 24.84 308.152 26.88 308.072 28.48C308.032 30.04 307.872 31.28 307.592 32.2C307.352 33.08 306.912 33.72 306.272 34.12ZM321.09 44L334.804 0.719992H350.487L364.263 44H351.594L349.134 35.9H335.922L333.522 44H321.09ZM335.176 34.9H349.876L352.336 43H362.896L349.756 1.71999H335.536L322.456 43H332.776L335.176 34.9ZM347.596 27.04L342.676 10.72H342.256L337.396 27.04H347.596ZM338.737 26.04H346.25L342.47 13.5032L338.737 26.04Z" fill="white"/>
</svg>
