<svg width="1920" height="1022" viewBox="0 0 1920 1022" fill="none" xmlns="http://www.w3.org/2000/svg">
    <mask id="y2x8bfnona" style="mask-type:alpha" maskUnits="userSpaceOnUse" x="0" y="0" width="1920" height="1022">
        <path d="M0 0h1920v1022H0V0z" fill="#0C1333"/>
    </mask>
    <g style="mix-blend-mode:color-dodge" opacity=".3" mask="url(#y2x8bfnona)">
        <path d="M1619.1 1818.14c79.79 0 154.5-30.82 210.47-86.88l790.75-790.756c55.96-55.961 86.89-130.78 86.89-210.464s-30.82-154.501-86.89-210.463l-4.26 4.258 4.26-4.258-790.75-790.758c-116.08-116.079-304.95-116.079-421.03 0L617.779 519.577c-116.079 116.079-116.079 304.949 0 421.028l790.761 790.755c55.96 55.96 130.78 86.89 210.46 86.89l.1-.11zm992.81-1290.047c53.73 53.731 83.33 125.508 83.33 202.049 0 76.541-29.6 148.318-83.33 202.049l-790.76 790.759c-53.73 53.73-125.51 83.33-202.05 83.33s-148.32-29.6-202.05-83.33L626.295 932.191c-111.416-111.416-111.416-292.682 0-404.098l790.755-790.758c111.42-111.416 292.68-111.416 404.1 0l790.76 790.758z" fill="url(#1vd4nbcrfb)" opacity=".04"/>
        <path d="M1619.13 1797.26c78.27 0 151.56-30.21 206.51-85.16l775.55-775.553c113.85-113.849 113.85-299.068 0-413.018l-775.55-775.552c-113.85-113.848-299.17-113.848-413.02 0L637.07 523.529c-113.849 113.848-113.849 299.068 0 413.018l775.55 775.553c54.95 54.95 128.25 85.16 206.51 85.16zm0-2122.884c71.78 0 143.55 27.271 198.2 81.915l775.55 775.551c109.29 109.286 109.29 287.004 0 396.291l-775.55 775.547c-52.72 52.72-123.08 81.72-198.2 81.72-75.12 0-145.48-29-198.09-81.72L645.485 928.133c-109.287-109.287-109.287-287.005 0-396.291l775.555-775.551c54.64-54.644 126.42-81.915 198.09-81.915z" fill="url(#dlnwvpnc9c)" opacity=".08"/>
        <path d="M1619.14 1776.47c76.74 0 148.62-29.7 202.45-83.53l760.45-760.448c111.62-111.618 111.62-293.29 0-405.01l-760.45-760.445c-53.83-53.832-125.81-83.537-202.45-83.537-76.64 0-148.62 29.705-202.46 83.537L656.239 527.482c-111.619 111.619-111.619 293.29 0 405.01l760.441 760.448c53.84 53.83 125.82 83.53 202.46 83.53zm958.84-1244.831-4.15 4.157c107.15 107.157 107.15 281.428 0 388.485l-760.45 760.449c-51.7 51.7-120.64 80.09-194.24 80.09-73.6 0-142.54-28.49-194.24-80.09L664.45 924.281c-107.056-107.158-107.056-281.429 0-388.485L1424.9-224.65c51.7-51.703 120.64-80.09 194.24-80.09 73.6 0 142.64 28.488 194.24 80.09l760.45 760.446 4.15-4.157z" fill="url(#livjulxstd)" opacity=".12"/>
        <path d="M1619.09 1755.69c75.23 0 145.69-29.09 198.5-81.91l745.24-745.241c109.49-109.388 109.49-287.511 0-397.001l-745.24-745.239c-109.49-109.388-287.51-109.388-397 0L675.354 531.538c-109.388 109.49-109.388 287.512 0 397.001l745.236 745.241c52.82 52.82 123.28 81.91 198.5 81.91zm939.69-1220.097-4.06 4.055c104.93 104.928 104.93 275.752 0 380.679l-745.24 745.243c-104.92 104.92-275.75 104.92-380.68 0L683.565 920.327c-104.927-104.927-104.927-275.751 0-380.679L1428.8-205.59c104.93-104.928 275.76-104.928 380.68 0l745.24 745.238 4.06-4.055z" fill="url(#bmkndhg2ee)" opacity=".15"/>
        <path d="M1619.1 1734.91c73.7 0 142.74-28.49 194.44-80.19l730.13-730.136c107.26-107.259 107.26-281.733 0-388.992l-4.05 4.055 4.05-4.055-730.13-730.133c-107.26-107.259-281.73-107.259-388.99 0L694.417 535.592c-107.26 107.259-107.26 281.733 0 388.992l730.133 730.136c51.7 51.7 120.84 80.19 194.45 80.19h.1zm0-1998.49c67.51 0 135.03 25.75 186.43 77.149l730.14 730.134c102.79 102.798 102.79 270.074 0 372.872l-730.14 730.135c-102.8 102.8-270.07 102.8-372.87 0L702.527 916.575c-102.799-102.798-102.799-270.074 0-372.872l730.133-730.134c51.4-51.399 118.92-77.149 186.44-77.149z" fill="url(#g8b0fve2lf)" opacity=".19"/>
        <path d="M1619.13 1714.12c72.18 0 139.8-27.87 190.49-78.56l715.03-715.032c105.03-105.029 105.03-275.954 0-380.983l-715.03-715.028c-105.03-105.029-275.95-105.029-380.98 0L713.61 539.545c-105.029 105.029-105.029 275.954 0 380.983l715.03 715.032c50.69 50.69 118.31 78.56 190.49 78.56zm0-1957.02c66.1 0 132.2 25.142 182.58 75.528l714.93 715.027c100.67 100.67 100.67 264.397 0 365.067l-714.93 715.028c-48.56 48.56-113.34 75.32-182.58 75.32-69.24 0-134.02-26.76-182.58-75.32L721.517 912.722c-100.669-100.67-100.669-264.397 0-365.067l715.033-715.027c50.28-50.285 116.48-75.528 182.58-75.528z" fill="url(#7zybq9curg)" opacity=".23"/>
        <path d="M1619.1 1693.34c70.67 0 136.87-27.37 186.44-76.94l699.82-699.823c102.8-102.799 102.8-270.176 0-372.975l-699.82-699.82c-102.8-102.799-270.17-102.799-372.97 0l-699.824 699.82C683.172 593.177 655.8 659.377 655.8 730.039c0 70.661 27.27 136.862 76.946 186.436L1432.57 1616.3c49.57 49.57 115.77 76.94 186.43 76.94l.1.1zm0-1915.556c64.68 0 129.36 24.635 178.63 73.905l699.83 699.821c98.54 98.54 98.54 258.821 0 357.26l-699.83 699.82c-98.54 98.54-258.82 98.54-357.26 0L740.654 908.77c-98.541-98.54-98.541-258.821 0-357.26l699.816-699.821c49.27-49.27 113.95-73.905 178.63-73.905z" fill="url(#4jl6t10lrh)" opacity=".27"/>
        <path d="M1619.12 1672.66c66.1 0 132.2-25.14 182.48-75.42l684.72-684.72c100.57-100.568 100.57-264.296 0-364.965L1801.6-137.16c-100.57-100.568-264.29-100.568-364.96 0L751.922 547.555c-100.669 100.568-100.669 264.295 0 364.965l684.718 684.72c50.28 50.28 116.38 75.42 182.48 75.42zm859.49-1117.4c96.31 96.31 96.31 253.144 0 349.454L1793.9 1589.43c-96.31 96.31-253.15 96.31-349.46 0L759.728 904.714c-96.31-96.31-96.31-253.144 0-349.454l684.712-684.715c96.31-96.412 253.15-96.311 349.46 0l684.71 684.715z" fill="url(#zttdjgs2ci)" opacity=".31"/>
        <path d="M1619.11 1651.88c64.68 0 129.26-24.64 178.43-73.81l669.51-669.504c98.43-98.439 98.43-258.517 0-356.956l-669.51-669.509c-98.44-98.439-258.52-98.439-356.96 0L771.073 551.61c-98.44 98.439-98.44 258.517 0 356.956l669.507 669.504c49.17 49.17 113.85 73.81 178.43 73.81h.1zm840.43-1092.667c94.18 94.181 94.18 247.467 0 341.749l-669.5 669.508c-94.19 94.18-247.47 94.18-341.75 0L778.777 900.962c-94.181-94.181-94.181-247.466 0-341.749l669.513-669.508c94.18-94.182 247.46-94.182 341.75 0l669.5 669.508z" fill="url(#1ranoorhjj)" opacity=".35"/>
        <path d="M1619.1 1631.1c63.15 0 126.31-24.03 174.47-72.18l654.4-654.407c96.21-96.209 96.21-252.739 0-348.947l-3.75 3.751 3.75-3.751-654.4-654.403c-96.21-96.209-252.74-96.209-348.95 0L790.219 555.566c-96.208 96.208-96.208 252.738 0 348.947l654.401 654.407c48.16 48.05 111.32 72.18 174.48 72.18zm821.37-1067.931c92.05 92.052 92.05 241.891 0 333.943l-654.4 654.408c-92.06 92.05-241.89 92.05-333.95 0L797.722 897.112c-92.053-92.052-92.053-241.891 0-333.943L1452.12-91.234c92.06-92.052 241.89-92.052 333.95 0l654.4 654.403z" fill="url(#y10uus36hk)" opacity=".38"/>
        <path d="M1619.12 1610.31c61.74 0 123.48-23.52 170.52-70.46l639.3-639.191c93.98-93.979 93.98-246.96 0-340.938l-639.3-639.298c-93.98-93.978-246.96-93.978-340.94 0L809.506 559.721c-93.978 93.978-93.978 246.959 0 340.938L1448.7 1539.85c47.04 47.04 108.78 70.46 170.42 70.46zm0-1749.802c61.74 0 119.73 23.925 163.02 67.214l639.3 639.298c89.92 89.923 89.92 236.213 0 326.137l-639.3 639.193c-43.39 43.39-101.28 67.22-163.02 67.22-61.74 0-119.63-23.93-163.02-67.22L816.806 893.157c-89.924-89.924-89.924-236.214 0-326.137L1456.1-72.278c43.39-43.39 101.28-67.214 163.02-67.214z" fill="url(#ab34rowmkl)" opacity=".42"/>
        <path d="M1619.1 1589.43c60.32 0 120.54-22.91 166.47-68.84l624.09-624.087c91.74-91.748 91.74-241.181 0-332.93l-624.09-624.09c-91.85-91.748-241.19-91.748-332.93 0l-624.095 624.09c-91.748 91.749-91.748 241.182 0 332.93l624.095 624.087c45.92 45.93 106.14 68.84 166.46 68.84zm0-1708.443c57.69 0 115.27 21.898 159.17 65.795l624.09 624.091c87.79 87.794 87.79 230.536 0 318.33l-624.09 624.087c-87.8 87.8-230.54 87.8-318.33 0L835.845 889.203c-87.795-87.794-87.795-230.536 0-318.33l624.095-624.09c43.89-43.898 101.48-65.796 159.16-65.796z" fill="url(#1wojxp38km)" opacity=".46"/>
        <path d="M1619.11 1568.65c58.8 0 117.7-22.41 162.41-67.22l608.98-608.981c89.62-89.62 89.62-235.302 0-324.921L1781.52-41.457c-89.62-89.619-235.3-89.619-324.92 0L847.614 567.528c-89.619 89.619-89.619 235.301 0 324.921L1456.6 1501.43c44.81 44.81 103.61 67.22 162.51 67.22zm767.85-997.472-3.65 3.65c85.56 85.564 85.56 224.859 0 310.524l-608.99 608.988c-85.56 85.56-224.86 85.66-310.52 0L854.812 885.352c-85.564-85.564-85.564-224.859 0-310.524L1463.8-34.157c41.26-41.262 96.41-64.072 155.21-64.072 58.8 0 113.95 22.709 155.21 64.072l608.99 608.985 3.64-3.65h.11z" fill="url(#69suxx12yn)" opacity=".5"/>
        <path d="M1619.11 1547.86c57.38 0 114.76-21.79 158.46-65.49l593.77-593.776c42.18-42.174 65.39-98.439 65.39-158.455 0-60.017-23.21-116.282-65.39-158.456l-3.54 3.548 3.54-3.548-593.77-593.778c-87.39-87.389-229.53-87.389-316.91 0L866.877 571.683c-42.174 42.174-65.39 98.439-65.39 158.456 0 60.016 23.216 116.281 65.39 158.455l593.783 593.776c43.69 43.7 101.07 65.49 158.45 65.49zm0-1625.511c54.85 0 109.59 20.884 151.36 62.55l593.78 593.779c40.25 40.248 62.45 93.978 62.45 151.359 0 57.381-22.2 111.112-62.45 151.359l-593.78 593.774c-83.43 83.44-219.28 83.44-302.72 0L873.974 881.396c-83.436-83.435-83.436-219.283 0-302.718L1467.75-15.1c41.77-41.768 96.51-62.551 151.36-62.551z" fill="url(#9z8567fi6o)" opacity=".54"/>
        <path d="M1619.1 1526.88c58.49 0 113.34-22.61 154.5-63.77l578.67-578.671c85.16-85.159 85.16-223.744 0-308.903L1773.6-3.136c-41.06-41.059-95.9-63.768-154.5-63.768-58.6 0-113.34 22.608-154.4 63.768L886.026 575.536c-85.159 85.159-85.159 223.744 0 308.903L1464.7 1463.11c41.06 41.06 95.9 63.77 154.4 63.77zm0-1583.95c53.43 0 106.75 20.276 147.4 60.929l578.68 578.672c81.3 81.307 81.3 213.607 0 294.913L1766.5 1456.12c-81.3 81.3-213.6 81.3-294.91 0L892.919 877.444c-81.306-81.306-81.306-213.606 0-294.913L1471.59 3.859c40.66-40.653 94.08-60.93 147.41-60.93h.1z" fill="url(#g5r6sccicp)" opacity=".58"/>
        <path d="M1619.12 1506.2c54.44 0 108.98-20.68 150.44-62.25l563.47-563.465c82.93-82.928 82.93-217.965 0-300.893L1769.56 16.126c-82.93-82.928-217.96-82.928-300.89 0L905.204 579.592c-82.929 82.928-82.929 217.965 0 300.893l563.466 563.465c41.46 41.46 96.01 62.25 150.45 62.25zm0-1542.589c52 0 104.01 19.77 143.55 59.409l563.57 563.567c79.17 79.177 79.17 207.929 0 287.106l-563.57 563.467c-79.18 79.18-207.93 79.18-287.11 0L912.097 873.693c-79.177-79.177-79.177-207.929 0-287.106L1475.56 23.02c39.54-39.538 91.55-59.409 143.56-59.409z" fill="url(#s1xu8xkm1q)" opacity=".62"/>
        <path d="M1619.09 1485.42c53.03 0 106.05-20.18 146.5-60.53l548.36-548.358c80.8-80.799 80.8-212.187 0-292.885l-548.36-548.36c-80.8-80.698-212.19-80.698-292.89 0l-548.358 548.36c-80.799 80.8-80.799 212.187 0 292.885L1472.7 1424.89c40.35 40.35 93.37 60.53 146.5 60.53h-.11zm0-1501.127c50.59 0 101.18 19.262 139.6 57.787l548.36 548.36c77.05 77.048 77.05 202.353 0 279.299L1758.69 1418.1c-77.04 77.05-202.25 76.95-279.3 0L931.033 869.739c-77.048-77.048-77.048-202.352 0-279.299L1479.39 42.08c38.53-38.525 89.12-57.787 139.7-57.787z" fill="url(#2in4tn2g8r)" opacity=".65"/>
        <path d="M1619.1 1464.63c51.6 0 103.21-19.66 142.44-58.9l533.25-533.253c78.57-78.569 78.57-206.307 0-284.876L1761.54 54.347c-78.57-78.57-206.31-78.57-284.88 0L943.409 587.6c-78.569 78.569-78.569 206.307 0 284.876l533.251 533.253c39.24 39.24 90.84 58.9 142.44 58.9zm672.35-873.683-3.35 3.345c74.82 74.818 74.82 196.676 0 271.494l-533.25 533.254c-74.82 74.82-196.68 74.82-271.49 0L950.1 865.786c-74.818-74.818-74.818-196.676 0-271.494l533.26-533.254c74.81-74.818 196.67-74.818 271.49 0l533.25 533.254 3.35-3.345z" fill="url(#z8rofh37zs)" opacity=".69"/>
        <path d="M1619.11 1443.85c50.19 0 100.27-19.06 138.49-57.28l518.04-518.048c76.34-76.339 76.34-200.528 0-276.867l-3.34 3.346 3.34-3.346L1757.6 73.607c-76.34-76.338-200.53-76.338-276.87 0L962.682 591.655c-76.338 76.339-76.338 200.528 0 276.867l518.048 518.048c38.22 38.12 88.3 57.28 138.48 57.28h-.1zm0-1418.195c47.75 0 95.5 18.147 131.9 54.542l518.04 518.048c72.69 72.689 72.69 190.998 0 263.687l-518.04 518.048c-72.69 72.69-191 72.69-263.69 0L969.272 861.932c-72.689-72.689-72.689-190.998 0-263.687L1487.32 80.197c36.39-36.395 84.14-54.542 131.89-54.542h-.1z" fill="url(#p20cyolmut)" opacity=".73"/>
        <path d="M1619.11 1423.07c48.66 0 97.32-18.56 134.43-55.56l502.94-502.941c74.11-74.108 74.11-194.75 0-268.858L1753.54 92.769c-74.11-74.109-194.75-74.109-268.86 0L981.735 595.71c-74.108 74.108-74.108 194.75 0 268.858l502.945 502.941c37.1 37.11 85.76 55.56 134.43 55.56zm0-1376.733c46.33 0 92.66 17.64 127.94 52.92l502.94 502.942c70.56 70.56 70.56 185.322 0 255.881l-502.94 502.94c-70.56 70.56-185.32 70.56-255.88 0L988.224 858.08c-70.56-70.559-70.56-185.321 0-255.881L1491.17 99.257c35.28-35.28 81.61-52.92 127.94-52.92z" fill="url(#5j2moevb9u)" opacity=".77"/>
        <path d="M1619.09 1402.08c49.37 0 95.7-19.06 130.48-53.83l487.83-487.84c71.88-71.878 71.88-188.971 0-260.849l-487.83-487.836c-71.88-71.878-188.97-71.878-260.85 0l-487.84 487.836c-34.67 34.672-53.831 81.002-53.831 130.475 0 49.474 19.161 95.702 53.831 130.475l487.84 487.839c34.67 34.67 81 53.83 130.47 53.83l-.1-.1zm0-1335.165c44.91 0 89.82 17.133 124.09 51.298l487.74 487.837c68.43 68.431 68.43 179.745 0 248.075l-487.74 487.835c-68.43 68.43-179.74 68.43-248.07 0l-487.74-487.835c-68.431-68.431-68.431-179.746 0-248.075l487.74-487.837c34.16-34.165 79.17-51.298 124.08-51.298h-.1z" fill="url(#xx1xq6o8wv)" opacity=".81"/>
        <path d="M1619.14 1381.3c47.85 0 92.76-18.55 126.42-52.11l472.63-472.631c33.66-33.658 52.11-78.569 52.11-126.419 0-47.851-18.55-92.763-52.11-126.42l-472.63-472.63c-33.66-33.658-78.57-52.21-126.42-52.21-47.85 0-92.76 18.552-126.42 52.21l-472.63 472.63c-33.658 33.657-52.109 78.569-52.109 126.42 0 47.85 18.553 92.761 52.109 126.419l472.63 472.631c33.66 33.66 78.57 52.11 126.42 52.11zm595.91-774.539-3.15 3.143c66.31 66.302 66.31 174.068 0 240.268L1739.27 1322.8c-66.2 66.2-174.06 66.3-240.26 0l-472.63-472.628c-66.306-66.302-66.306-174.068 0-240.268l472.63-472.63c31.93-31.935 74.61-49.575 120.13-49.575 45.52 0 88.2 17.64 120.13 49.575l472.63 472.63 3.15-3.143z" fill="url(#2t78vsmiuw)" opacity=".85"/>
        <path d="M1619.1 1360.52c46.43 0 89.92-17.95 122.46-50.49l457.53-457.524c67.52-67.519 67.52-177.414 0-244.831L1741.56 150.15c-32.54-32.542-76.03-50.486-122.46-50.486-46.43 0-89.82 17.944-122.47 50.486l-457.52 457.525c-67.522 67.518-67.522 177.414 0 244.831l457.52 457.524c32.54 32.54 76.04 50.49 122.47 50.49zm573.7-746.661c64.07 64.072 64.07 168.391 0 232.463l-457.52 457.528c-64.07 64.07-168.39 64.07-232.47 0l-457.52-457.528c-64.071-64.072-64.071-168.391 0-232.463l457.52-457.423c30.93-30.921 72.19-47.952 116.29-47.952 44.1 0 85.36 17.031 116.28 47.952L2192.9 613.96l-.1-.101z" fill="url(#8o2146oubx)" opacity=".88"/>
        <path d="M1619.12 1339.83c42.89 0 85.77-16.32 118.41-48.96l442.32-442.321c65.29-65.288 65.29-171.533 0-236.822L1737.53 169.41c-31.52-31.529-73.6-48.865-118.41-48.865s-86.98 17.336-118.41 48.865L1058.4 611.727c-31.53 31.529-48.87 73.602-48.87 118.411 0 44.81 17.34 86.882 48.87 118.411l442.31 442.321c32.65 32.64 75.53 48.96 118.41 48.96zm0-1210.769c42.58 0 82.43 16.423 112.33 46.33l442.32 442.318c29.91 29.907 46.33 69.749 46.33 112.328 0 42.579-16.42 82.421-46.33 112.328l-442.32 442.315c-61.94 61.95-162.71 61.95-224.76 0l-442.31-442.315c-29.91-29.907-46.33-69.749-46.33-112.328 0-42.579 16.42-82.421 46.33-112.328l442.31-442.318c29.91-29.907 69.75-46.33 112.33-46.33h.1z" fill="url(#ft88j4sawy)" opacity=".92"/>
        <path d="M1619.11 1318.85c43.39 0 84.04-16.73 114.45-47.25l427.21-427.207c63.06-63.058 63.06-165.755 0-228.915l-427.21-427.212c-30.41-30.413-71.06-47.242-114.45-47.242s-83.95 16.727-114.46 47.242l-427.21 427.212c-63.06 63.058-63.06 165.755 0 228.915l427.21 427.207c30.41 30.42 71.07 47.25 114.46 47.25zm538.62-700.229-2.94 2.94c59.82 59.814 59.82 157.138 0 216.952l-427.21 427.207c-59.81 59.82-157.14 59.82-216.95 0l-427.21-427.207c-59.82-59.814-59.82-157.138 0-216.952l427.21-427.212c28.89-28.893 67.32-44.708 108.48-44.708 41.16 0 79.58 15.916 108.47 44.708l427.21 427.212 2.94-2.94z" fill="url(#hjjozl8qmz)" opacity=".96"/>
        <path d="M1619.09 1298.17c40.05 0 79.99-15.21 110.4-45.62l412.01-412.01c60.93-60.929 60.93-159.976 0-220.905L1729.49 207.63c-60.82-60.929-159.97-60.929-220.8 0l-412.01 412.005c-60.92 60.929-60.92 159.976 0 220.905l412.01 412.01c30.41 30.41 70.46 45.62 110.4 45.62zm519.57-675.595-2.94 2.94c57.69 57.684 57.69 151.46 0 209.145l-412.01 412.01c-57.68 57.68-151.46 57.68-209.14 0l-412.01-412.01c-27.77-27.778-43.08-64.984-43.08-104.522 0-39.538 15.31-76.744 43.08-104.522l412.01-412.005c57.68-57.685 151.46-57.685 209.14 0l412.01 412.005 2.94-2.94v-.101z" fill="url(#cnvp8osz4A)"/>
    </g>
    <defs>
        <linearGradient id="1vd4nbcrfb" x1="1013.57" y1="124.001" x2="2225.28" y2="1335.71" gradientUnits="userSpaceOnUse">
            <stop stop-color="#C4C4C4"/>
            <stop offset="1"/>
        </linearGradient>
        <linearGradient id="dlnwvpnc9c" x1="1025.2" y1="135.584" x2="2213.75" y2="1324.14" gradientUnits="userSpaceOnUse">
            <stop stop-color="#C4C4C4"/>
            <stop offset="1"/>
        </linearGradient>
        <linearGradient id="livjulxstd" x1="1036.83" y1="147.099" x2="2202.23" y2="1312.5" gradientUnits="userSpaceOnUse">
            <stop stop-color="#C4C4C4"/>
            <stop offset="1"/>
        </linearGradient>
        <linearGradient id="bmkndhg2ee" x1="1048.38" y1="158.786" x2="2190.62" y2="1301.03" gradientUnits="userSpaceOnUse">
            <stop stop-color="#C4C4C4"/>
            <stop offset="1"/>
        </linearGradient>
        <linearGradient id="g8b0fve2lf" x1="1059.91" y1="170.3" x2="2179" y2="1289.39" gradientUnits="userSpaceOnUse">
            <stop stop-color="#C4C4C4"/>
            <stop offset="1"/>
        </linearGradient>
        <linearGradient id="7zybq9curg" x1="1071.53" y1="181.885" x2="2167.47" y2="1277.82" gradientUnits="userSpaceOnUse">
            <stop stop-color="#C4C4C4"/>
            <stop offset="1"/>
        </linearGradient>
        <linearGradient id="4jl6t10lrh" x1="1083.13" y1="193.401" x2="2155.91" y2="1266.18" gradientUnits="userSpaceOnUse">
            <stop stop-color="#C4C4C4"/>
            <stop offset="1"/>
        </linearGradient>
        <linearGradient id="zttdjgs2ci" x1="1094.67" y1="205.058" x2="2144.3" y2="1254.68" gradientUnits="userSpaceOnUse">
            <stop stop-color="#C4C4C4"/>
            <stop offset="1"/>
        </linearGradient>
        <linearGradient id="1ranoorhjj" x1="1106.26" y1="216.643" x2="2132.73" y2="1243.11" gradientUnits="userSpaceOnUse">
            <stop stop-color="#C4C4C4"/>
            <stop offset="1"/>
        </linearGradient>
        <linearGradient id="y10uus36hk" x1="1117.77" y1="228.159" x2="2121.08" y2="1231.48" gradientUnits="userSpaceOnUse">
            <stop stop-color="#C4C4C4"/>
            <stop offset="1"/>
        </linearGradient>
        <linearGradient id="ab34rowmkl" x1="1129.49" y1="239.845" x2="2109.65" y2="1220.01" gradientUnits="userSpaceOnUse">
            <stop stop-color="#C4C4C4"/>
            <stop offset="1"/>
        </linearGradient>
        <linearGradient id="1wojxp38km" x1="1140.99" y1="251.36" x2="2098.07" y2="1208.44" gradientUnits="userSpaceOnUse">
            <stop stop-color="#C4C4C4"/>
            <stop offset="1"/>
        </linearGradient>
        <linearGradient id="69suxx12yn" x1="1152.6" y1="262.947" x2="2086.45" y2="1196.8" gradientUnits="userSpaceOnUse">
            <stop stop-color="#C4C4C4"/>
            <stop offset="1"/>
        </linearGradient>
        <linearGradient id="9z8567fi6o" x1="1164.12" y1="274.459" x2="2074.89" y2="1185.23" gradientUnits="userSpaceOnUse">
            <stop stop-color="#C4C4C4"/>
            <stop offset="1"/>
        </linearGradient>
        <linearGradient id="g5r6sccicp" x1="1175.7" y1="286.046" x2="2063.25" y2="1173.59" gradientUnits="userSpaceOnUse">
            <stop stop-color="#C4C4C4"/>
            <stop offset="1"/>
        </linearGradient>
        <linearGradient id="s1xu8xkm1q" x1="1187.27" y1="297.632" x2="2051.73" y2="1162.09" gradientUnits="userSpaceOnUse">
            <stop stop-color="#C4C4C4"/>
            <stop offset="1"/>
        </linearGradient>
        <linearGradient id="2in4tn2g8r" x1="1198.85" y1="309.219" x2="2040.15" y2="1150.52" gradientUnits="userSpaceOnUse">
            <stop stop-color="#C4C4C4"/>
            <stop offset="1"/>
        </linearGradient>
        <linearGradient id="z8rofh37zs" x1="1210.38" y1="320.835" x2="2028.53" y2="1138.99" gradientUnits="userSpaceOnUse">
            <stop stop-color="#C4C4C4"/>
            <stop offset="1"/>
        </linearGradient>
        <linearGradient id="p20cyolmut" x1="1221.98" y1="332.419" x2="2016.98" y2="1127.42" gradientUnits="userSpaceOnUse">
            <stop stop-color="#C4C4C4"/>
            <stop offset="1"/>
        </linearGradient>
        <linearGradient id="5j2moevb9u" x1="1233.6" y1="343.934" x2="2005.44" y2="1115.78" gradientUnits="userSpaceOnUse">
            <stop stop-color="#C4C4C4"/>
            <stop offset="1"/>
        </linearGradient>
        <linearGradient id="xx1xq6o8wv" x1="1245.18" y1="355.518" x2="1993.87" y2="1104.21" gradientUnits="userSpaceOnUse">
            <stop stop-color="#C4C4C4"/>
            <stop offset="1"/>
        </linearGradient>
        <linearGradient id="2t78vsmiuw" x1="1256.75" y1="367.034" x2="1982.29" y2="1092.57" gradientUnits="userSpaceOnUse">
            <stop stop-color="#C4C4C4"/>
            <stop offset="1"/>
        </linearGradient>
        <linearGradient id="8o2146oubx" x1="1268.31" y1="378.622" x2="1970.69" y2="1081" gradientUnits="userSpaceOnUse">
            <stop stop-color="#C4C4C4"/>
            <stop offset="1"/>
        </linearGradient>
        <linearGradient id="ft88j4sawy" x1="1279.96" y1="390.277" x2="1959.11" y2="1069.43" gradientUnits="userSpaceOnUse">
            <stop stop-color="#C4C4C4"/>
            <stop offset="1"/>
        </linearGradient>
        <linearGradient id="hjjozl8qmz" x1="1291.46" y1="401.892" x2="1947.53" y2="1057.96" gradientUnits="userSpaceOnUse">
            <stop stop-color="#C4C4C4"/>
            <stop offset="1"/>
        </linearGradient>
        <linearGradient id="cnvp8osz4A" x1="1303.04" y1="413.478" x2="1935.96" y2="1046.39" gradientUnits="userSpaceOnUse">
            <stop stop-color="#C4C4C4"/>
            <stop offset="1"/>
        </linearGradient>
    </defs>
</svg>
