<svg width="637" height="60" viewBox="0 0 637 60" fill="none" xmlns="http://www.w3.org/2000/svg">
<mask id="path-1-outside-1_219_496" maskUnits="userSpaceOnUse" x="0.369141" y="0.419998" width="637" height="59" fill="black">
<rect fill="white" x="0.369141" y="0.419998" width="637" height="59"/>
<path d="M1.36914 46V4.72H21.2291C23.8691 4.72 26.0091 5.04 27.6491 5.68C29.2891 6.28 30.5491 7.18 31.4291 8.38C32.3091 9.54 32.9091 10.98 33.2291 12.7C33.5491 14.42 33.7091 16.4 33.7091 18.64C33.7091 20.68 33.5491 22.56 33.2291 24.28C32.9491 25.96 32.3691 27.42 31.4891 28.66C30.6491 29.9 29.3891 30.86 27.7091 31.54C26.0291 32.22 23.8091 32.56 21.0491 32.56H11.8091V46H1.36914ZM11.8091 24.64H17.0291C18.4691 24.64 19.5891 24.56 20.3891 24.4C21.2291 24.24 21.8491 23.96 22.2491 23.56C22.6491 23.12 22.9091 22.52 23.0291 21.76C23.1491 20.96 23.2091 19.92 23.2091 18.64C23.2091 17.36 23.1491 16.32 23.0291 15.52C22.9491 14.72 22.7091 14.12 22.3091 13.72C21.9091 13.28 21.3091 13 20.5091 12.88C19.7091 12.72 18.6091 12.64 17.2091 12.64H11.8091V24.64ZM39.3838 46V15.4H48.5038L48.7438 20.62H49.2838C49.8438 19.14 50.5438 17.98 51.3838 17.14C52.2638 16.3 53.3238 15.72 54.5638 15.4C55.8038 15.08 57.2438 14.92 58.8838 14.92V23.74C56.3638 23.74 54.3838 24.06 52.9438 24.7C51.5038 25.34 50.4838 26.44 49.8838 28C49.2838 29.52 48.9838 31.66 48.9838 34.42V46H39.3838ZM77.9802 46.48C75.1002 46.48 72.7202 46.3 70.8402 45.94C68.9602 45.58 67.4602 45.02 66.3402 44.26C65.2602 43.46 64.4402 42.44 63.8802 41.2C63.3602 39.96 63.0202 38.48 62.8602 36.76C62.7402 35.04 62.6802 33.04 62.6802 30.76C62.6802 28 62.8002 25.62 63.0402 23.62C63.3202 21.62 63.9202 19.98 64.8402 18.7C65.7602 17.42 67.1802 16.48 69.1002 15.88C71.0602 15.24 73.7002 14.92 77.0202 14.92C79.7002 14.92 81.8802 15.12 83.5602 15.52C85.2402 15.88 86.5602 16.46 87.5202 17.26C88.5202 18.02 89.2202 19.02 89.6202 20.26C90.0602 21.5 90.3402 23 90.4602 24.76C90.5802 26.48 90.6402 28.48 90.6402 30.76V33.1H72.2202C72.2202 34.46 72.2802 35.56 72.4002 36.4C72.5202 37.2 72.8402 37.8 73.3602 38.2C73.8802 38.6 74.6802 38.88 75.7602 39.04C76.8402 39.16 78.3402 39.22 80.2602 39.22C81.0202 39.22 81.9202 39.2 82.9602 39.16C84.0002 39.12 85.0802 39.06 86.2002 38.98C87.3602 38.9 88.4402 38.82 89.4402 38.74V45.46C88.5602 45.66 87.4802 45.84 86.2002 46C84.9602 46.16 83.6202 46.28 82.1802 46.36C80.7402 46.44 79.3402 46.48 77.9802 46.48ZM81.5802 29.08V28.12C81.5802 26.68 81.5002 25.54 81.3402 24.7C81.2202 23.86 80.9802 23.24 80.6202 22.84C80.3002 22.4 79.8402 22.12 79.2402 22C78.6402 21.88 77.8802 21.82 76.9602 21.82C75.9202 21.82 75.0802 21.9 74.4402 22.06C73.8402 22.18 73.3802 22.46 73.0602 22.9C72.7402 23.34 72.5202 23.98 72.4002 24.82C72.2802 25.66 72.2202 26.76 72.2202 28.12H82.6002L81.5802 29.08ZM112.814 46V4.72H133.274C135.954 4.72 138.114 5.02 139.754 5.62C141.434 6.18 142.694 7.04 143.534 8.2C144.414 9.32 144.994 10.72 145.274 12.4C145.594 14.04 145.754 15.92 145.754 18.04C145.754 19.6 145.634 21.18 145.394 22.78C145.154 24.34 144.634 25.78 143.834 27.1C143.074 28.38 141.894 29.36 140.294 30.04L146.534 46H135.674L129.854 29.5L132.494 30.94C132.134 31.14 131.754 31.26 131.354 31.3C130.994 31.34 130.534 31.36 129.974 31.36H123.254V46H112.814ZM123.254 23.62H129.254C130.614 23.62 131.694 23.56 132.494 23.44C133.334 23.28 133.954 23 134.354 22.6C134.754 22.2 135.014 21.64 135.134 20.92C135.254 20.2 135.314 19.28 135.314 18.16C135.314 17 135.254 16.06 135.134 15.34C135.054 14.62 134.814 14.08 134.414 13.72C134.054 13.32 133.454 13.04 132.614 12.88C131.814 12.72 130.694 12.64 129.254 12.64H123.254V23.62ZM166.867 46.48C163.987 46.48 161.607 46.3 159.727 45.94C157.847 45.58 156.347 45.02 155.227 44.26C154.147 43.46 153.327 42.44 152.767 41.2C152.247 39.96 151.907 38.48 151.747 36.76C151.627 35.04 151.567 33.04 151.567 30.76C151.567 28 151.687 25.62 151.927 23.62C152.207 21.62 152.807 19.98 153.727 18.7C154.647 17.42 156.067 16.48 157.987 15.88C159.947 15.24 162.587 14.92 165.907 14.92C168.587 14.92 170.767 15.12 172.447 15.52C174.127 15.88 175.447 16.46 176.407 17.26C177.407 18.02 178.107 19.02 178.507 20.26C178.947 21.5 179.227 23 179.347 24.76C179.467 26.48 179.527 28.48 179.527 30.76V33.1H161.107C161.107 34.46 161.167 35.56 161.287 36.4C161.407 37.2 161.727 37.8 162.247 38.2C162.767 38.6 163.567 38.88 164.647 39.04C165.727 39.16 167.227 39.22 169.147 39.22C169.907 39.22 170.807 39.2 171.847 39.16C172.887 39.12 173.967 39.06 175.087 38.98C176.247 38.9 177.327 38.82 178.327 38.74V45.46C177.447 45.66 176.367 45.84 175.087 46C173.847 46.16 172.507 46.28 171.067 46.36C169.627 46.44 168.227 46.48 166.867 46.48ZM170.467 29.08V28.12C170.467 26.68 170.387 25.54 170.227 24.7C170.107 23.86 169.867 23.24 169.507 22.84C169.187 22.4 168.727 22.12 168.127 22C167.527 21.88 166.767 21.82 165.847 21.82C164.807 21.82 163.967 21.9 163.327 22.06C162.727 22.18 162.267 22.46 161.947 22.9C161.627 23.34 161.407 23.98 161.287 24.82C161.167 25.66 161.107 26.76 161.107 28.12H171.487L170.467 29.08ZM198.225 58.36C196.945 58.36 195.605 58.32 194.205 58.24C192.845 58.2 191.565 58.12 190.365 58C189.165 57.88 188.165 57.74 187.365 57.58V50.92C188.205 50.96 189.105 50.98 190.065 50.98C191.025 51.02 191.985 51.04 192.945 51.04C193.945 51.04 194.885 51.04 195.765 51.04C197.725 51.04 199.245 50.96 200.325 50.8C201.445 50.68 202.265 50.38 202.785 49.9C203.345 49.46 203.685 48.78 203.805 47.86C203.925 46.98 203.985 45.78 203.985 44.26V42.1H203.505C202.905 43.14 202.165 43.94 201.285 44.5C200.445 45.02 199.505 45.38 198.465 45.58C197.425 45.78 196.305 45.88 195.105 45.88C193.265 45.88 191.705 45.64 190.425 45.16C189.145 44.64 188.085 43.82 187.245 42.7C186.445 41.54 185.865 39.96 185.505 37.96C185.145 35.96 184.965 33.46 184.965 30.46C184.965 27.42 185.145 24.9 185.505 22.9C185.905 20.9 186.505 19.32 187.305 18.16C188.105 17 189.145 16.18 190.425 15.7C191.705 15.18 193.245 14.92 195.045 14.92C196.165 14.92 197.265 15.04 198.345 15.28C199.465 15.48 200.485 15.88 201.405 16.48C202.365 17.08 203.145 17.96 203.745 19.12H204.225L204.465 15.4H213.645V42.52C213.645 45.2 213.505 47.54 213.225 49.54C212.945 51.54 212.305 53.18 211.305 54.46C210.345 55.78 208.825 56.76 206.745 57.4C204.705 58.04 201.865 58.36 198.225 58.36ZM199.305 38.02C200.465 38.02 201.345 37.9 201.945 37.66C202.585 37.38 203.045 36.9 203.325 36.22C203.605 35.58 203.785 34.8 203.865 33.88C203.945 32.92 203.985 31.78 203.985 30.46C203.985 29.18 203.945 28.06 203.865 27.1C203.825 26.14 203.645 25.36 203.325 24.76C203.045 24 202.585 23.5 201.945 23.26C201.345 22.98 200.465 22.84 199.305 22.84C198.225 22.84 197.365 22.92 196.725 23.08C196.085 23.2 195.605 23.5 195.285 23.98C195.005 24.46 194.825 25.22 194.745 26.26C194.665 27.3 194.625 28.7 194.625 30.46C194.625 32.22 194.665 33.6 194.745 34.6C194.825 35.6 195.005 36.36 195.285 36.88C195.605 37.36 196.085 37.68 196.725 37.84C197.365 37.96 198.225 38.02 199.305 38.02ZM220.963 9.16V1.42H230.863V9.16H220.963ZM221.083 46V15.4H230.803V46H221.083ZM250.131 46.48C248.851 46.48 247.451 46.44 245.931 46.36C244.451 46.28 242.991 46.18 241.551 46.06C240.151 45.94 238.891 45.8 237.771 45.64V38.86C238.411 38.9 239.131 38.96 239.931 39.04C240.771 39.12 241.631 39.18 242.511 39.22C243.391 39.26 244.231 39.3 245.031 39.34C245.871 39.34 246.631 39.34 247.311 39.34C249.191 39.34 250.531 39.28 251.331 39.16C252.171 39.04 252.691 38.8 252.891 38.44C253.131 38.04 253.251 37.52 253.251 36.88C253.251 36.24 253.171 35.78 253.011 35.5C252.891 35.22 252.611 35.02 252.171 34.9C251.771 34.78 251.071 34.66 250.071 34.54L242.931 33.64C241.211 33.4 239.911 32.9 239.031 32.14C238.151 31.34 237.551 30.28 237.231 28.96C236.951 27.6 236.811 26.02 236.811 24.22C236.811 22.1 237.131 20.44 237.771 19.24C238.411 18 239.291 17.08 240.411 16.48C241.571 15.84 242.931 15.42 244.491 15.22C246.091 15.02 247.791 14.92 249.591 14.92C250.871 14.92 252.191 14.96 253.551 15.04C254.911 15.12 256.211 15.24 257.451 15.4C258.691 15.52 259.711 15.66 260.511 15.82V22.54C259.511 22.46 258.451 22.38 257.331 22.3C256.251 22.22 255.211 22.16 254.211 22.12C253.211 22.08 252.371 22.06 251.691 22.06C250.091 22.06 248.851 22.1 247.971 22.18C247.131 22.26 246.551 22.46 246.231 22.78C245.951 23.1 245.811 23.62 245.811 24.34C245.811 24.9 245.851 25.34 245.931 25.66C246.051 25.94 246.311 26.14 246.711 26.26C247.111 26.38 247.731 26.5 248.571 26.62L255.771 27.52C257.131 27.68 258.291 28 259.251 28.48C260.211 28.96 260.931 29.82 261.411 31.06C261.931 32.3 262.191 34.16 262.191 36.64C262.191 38.88 261.891 40.66 261.291 41.98C260.731 43.26 259.911 44.24 258.831 44.92C257.751 45.56 256.471 45.98 254.991 46.18C253.551 46.38 251.931 46.48 250.131 46.48ZM271.018 46V22.72H265.438V15.4H271.018V6.52H280.738V15.4H287.398V22.72H280.738V46H271.018ZM306.379 46.48C303.499 46.48 301.119 46.3 299.239 45.94C297.359 45.58 295.859 45.02 294.739 44.26C293.659 43.46 292.839 42.44 292.279 41.2C291.759 39.96 291.419 38.48 291.259 36.76C291.139 35.04 291.079 33.04 291.079 30.76C291.079 28 291.199 25.62 291.439 23.62C291.719 21.62 292.319 19.98 293.239 18.7C294.159 17.42 295.579 16.48 297.499 15.88C299.459 15.24 302.099 14.92 305.419 14.92C308.099 14.92 310.279 15.12 311.959 15.52C313.639 15.88 314.959 16.46 315.919 17.26C316.919 18.02 317.619 19.02 318.019 20.26C318.459 21.5 318.739 23 318.859 24.76C318.979 26.48 319.039 28.48 319.039 30.76V33.1H300.619C300.619 34.46 300.679 35.56 300.799 36.4C300.919 37.2 301.239 37.8 301.759 38.2C302.279 38.6 303.079 38.88 304.159 39.04C305.239 39.16 306.739 39.22 308.659 39.22C309.419 39.22 310.319 39.2 311.359 39.16C312.399 39.12 313.479 39.06 314.599 38.98C315.759 38.9 316.839 38.82 317.839 38.74V45.46C316.959 45.66 315.879 45.84 314.599 46C313.359 46.16 312.019 46.28 310.579 46.36C309.139 46.44 307.739 46.48 306.379 46.48ZM309.979 29.08V28.12C309.979 26.68 309.899 25.54 309.739 24.7C309.619 23.86 309.379 23.24 309.019 22.84C308.699 22.4 308.239 22.12 307.639 22C307.039 21.88 306.279 21.82 305.359 21.82C304.319 21.82 303.479 21.9 302.839 22.06C302.239 22.18 301.779 22.46 301.459 22.9C301.139 23.34 300.919 23.98 300.799 24.82C300.679 25.66 300.619 26.76 300.619 28.12H310.999L309.979 29.08ZM325.497 46V15.4H334.617L334.857 20.62H335.397C335.957 19.14 336.657 17.98 337.497 17.14C338.377 16.3 339.437 15.72 340.677 15.4C341.917 15.08 343.357 14.92 344.997 14.92V23.74C342.477 23.74 340.497 24.06 339.057 24.7C337.617 25.34 336.597 26.44 335.997 28C335.397 29.52 335.097 31.66 335.097 34.42V46H325.497ZM364.562 32.8V25.06H380.942V32.8H364.562ZM419.941 46.48C416.821 46.48 414.221 46.28 412.141 45.88C410.061 45.44 408.361 44.74 407.041 43.78C405.761 42.82 404.781 41.54 404.101 39.94C403.461 38.34 403.021 36.34 402.781 33.94C402.541 31.54 402.421 28.68 402.421 25.36C402.421 22.04 402.541 19.18 402.781 16.78C403.021 14.38 403.461 12.38 404.101 10.78C404.781 9.18 405.761 7.9 407.041 6.94C408.361 5.98 410.061 5.3 412.141 4.9C414.221 4.46 416.821 4.24 419.941 4.24C421.141 4.24 422.381 4.28 423.661 4.36C424.941 4.44 426.181 4.56 427.381 4.72C428.581 4.88 429.601 5.08 430.441 5.32V12.82C429.201 12.7 428.061 12.6 427.021 12.52C426.021 12.4 425.141 12.34 424.381 12.34C423.621 12.3 422.981 12.28 422.461 12.28C420.621 12.28 419.101 12.36 417.901 12.52C416.741 12.64 415.821 12.94 415.141 13.42C414.461 13.9 413.961 14.62 413.641 15.58C413.321 16.5 413.101 17.76 412.981 19.36C412.901 20.92 412.861 22.92 412.861 25.36C412.861 27.76 412.901 29.76 412.981 31.36C413.101 32.96 413.321 34.24 413.641 35.2C413.961 36.16 414.461 36.88 415.141 37.36C415.821 37.8 416.741 38.1 417.901 38.26C419.101 38.38 420.621 38.44 422.461 38.44C423.701 38.44 425.101 38.4 426.661 38.32C428.221 38.2 429.561 38.06 430.681 37.9V45.58C429.801 45.74 428.741 45.88 427.501 46C426.261 46.16 424.981 46.28 423.661 46.36C422.381 46.44 421.141 46.48 419.941 46.48ZM437.06 46V15.4H446.18L446.42 20.62H446.96C447.52 19.14 448.22 17.98 449.06 17.14C449.94 16.3 451 15.72 452.24 15.4C453.48 15.08 454.92 14.92 456.56 14.92V23.74C454.04 23.74 452.06 24.06 450.62 24.7C449.18 25.34 448.16 26.44 447.56 28C446.96 29.52 446.66 31.66 446.66 34.42V46H437.06ZM475.656 46.48C472.776 46.48 470.396 46.3 468.516 45.94C466.636 45.58 465.136 45.02 464.016 44.26C462.936 43.46 462.116 42.44 461.556 41.2C461.036 39.96 460.696 38.48 460.536 36.76C460.416 35.04 460.356 33.04 460.356 30.76C460.356 28 460.476 25.62 460.716 23.62C460.996 21.62 461.596 19.98 462.516 18.7C463.436 17.42 464.856 16.48 466.776 15.88C468.736 15.24 471.376 14.92 474.696 14.92C477.376 14.92 479.556 15.12 481.236 15.52C482.916 15.88 484.236 16.46 485.196 17.26C486.196 18.02 486.896 19.02 487.296 20.26C487.736 21.5 488.016 23 488.136 24.76C488.256 26.48 488.316 28.48 488.316 30.76V33.1H469.896C469.896 34.46 469.956 35.56 470.076 36.4C470.196 37.2 470.516 37.8 471.036 38.2C471.556 38.6 472.356 38.88 473.436 39.04C474.516 39.16 476.016 39.22 477.936 39.22C478.696 39.22 479.596 39.2 480.636 39.16C481.676 39.12 482.756 39.06 483.876 38.98C485.036 38.9 486.116 38.82 487.116 38.74V45.46C486.236 45.66 485.156 45.84 483.876 46C482.636 46.16 481.296 46.28 479.856 46.36C478.416 46.44 477.016 46.48 475.656 46.48ZM479.256 29.08V28.12C479.256 26.68 479.176 25.54 479.016 24.7C478.896 23.86 478.656 23.24 478.296 22.84C477.976 22.4 477.516 22.12 476.916 22C476.316 21.88 475.556 21.82 474.636 21.82C473.596 21.82 472.756 21.9 472.116 22.06C471.516 22.18 471.056 22.46 470.736 22.9C470.416 23.34 470.196 23.98 470.076 24.82C469.956 25.66 469.896 26.76 469.896 28.12H480.276L479.256 29.08ZM502.214 46.48C500.294 46.48 498.674 46.18 497.354 45.58C496.034 44.98 495.034 44 494.354 42.64C493.714 41.28 493.394 39.5 493.394 37.3C493.394 34.98 493.654 33.14 494.174 31.78C494.734 30.38 495.714 29.38 497.114 28.78C498.514 28.18 500.494 27.88 503.054 27.88C503.414 27.88 503.914 27.9 504.554 27.94C505.234 27.94 505.994 27.96 506.834 28C507.674 28 508.514 28.02 509.354 28.06C510.194 28.06 510.954 28.08 511.634 28.12V26.98C511.634 25.82 511.534 24.92 511.334 24.28C511.174 23.64 510.834 23.18 510.314 22.9C509.834 22.58 509.094 22.4 508.094 22.36C507.094 22.28 505.774 22.24 504.134 22.24C503.214 22.24 502.194 22.26 501.074 22.3C499.994 22.34 498.914 22.4 497.834 22.48C496.794 22.52 495.914 22.58 495.194 22.66V15.88C496.834 15.6 498.674 15.38 500.714 15.22C502.794 15.02 504.974 14.92 507.254 14.92C509.814 14.92 511.934 15.08 513.614 15.4C515.334 15.72 516.714 16.22 517.754 16.9C518.794 17.54 519.554 18.36 520.034 19.36C520.554 20.36 520.894 21.54 521.054 22.9C521.214 24.26 521.294 25.8 521.294 27.52V46H512.054L511.814 42.4H511.334C510.574 43.6 509.694 44.5 508.694 45.1C507.694 45.7 506.634 46.08 505.514 46.24C504.394 46.4 503.294 46.48 502.214 46.48ZM506.774 39.64C507.494 39.64 508.114 39.6 508.634 39.52C509.194 39.4 509.654 39.22 510.014 38.98C510.414 38.7 510.734 38.36 510.974 37.96C511.174 37.52 511.334 36.98 511.454 36.34C511.574 35.7 511.634 34.94 511.634 34.06V32.92H506.054C505.054 32.92 504.294 33 503.774 33.16C503.254 33.28 502.894 33.6 502.694 34.12C502.534 34.6 502.454 35.36 502.454 36.4C502.454 37.28 502.554 37.96 502.754 38.44C502.954 38.92 503.354 39.24 503.954 39.4C504.594 39.56 505.534 39.64 506.774 39.64ZM531.526 46V22.72H525.946V15.4H531.526V6.52H541.246V15.4H547.906V22.72H541.246V46H531.526ZM566.047 46.48C563.327 46.48 561.066 46.32 559.266 46C557.466 45.68 556.046 45.16 555.006 44.44C553.966 43.72 553.206 42.76 552.727 41.56C552.247 40.36 551.926 38.86 551.766 37.06C551.646 35.26 551.586 33.12 551.586 30.64C551.586 28.16 551.646 26.04 551.766 24.28C551.926 22.48 552.247 20.98 552.727 19.78C553.206 18.58 553.966 17.62 555.006 16.9C556.046 16.18 557.466 15.68 559.266 15.4C561.066 15.08 563.327 14.92 566.047 14.92C568.807 14.92 571.086 15.08 572.886 15.4C574.686 15.68 576.107 16.18 577.146 16.9C578.186 17.62 578.947 18.58 579.427 19.78C579.906 20.98 580.206 22.48 580.326 24.28C580.486 26.04 580.566 28.16 580.566 30.64C580.566 33.12 580.486 35.26 580.326 37.06C580.206 38.86 579.906 40.36 579.427 41.56C578.947 42.76 578.186 43.72 577.146 44.44C576.107 45.16 574.686 45.68 572.886 46C571.086 46.32 568.807 46.48 566.047 46.48ZM566.047 39.16C567.247 39.16 568.186 39.08 568.866 38.92C569.546 38.76 570.026 38.4 570.306 37.84C570.586 37.28 570.747 36.42 570.786 35.26C570.867 34.1 570.906 32.56 570.906 30.64C570.906 28.72 570.867 27.2 570.786 26.08C570.747 24.96 570.586 24.12 570.306 23.56C570.026 23 569.546 22.64 568.866 22.48C568.186 22.32 567.247 22.24 566.047 22.24C564.846 22.24 563.906 22.32 563.227 22.48C562.586 22.64 562.127 23 561.846 23.56C561.566 24.12 561.386 24.96 561.306 26.08C561.266 27.2 561.246 28.72 561.246 30.64C561.246 32.56 561.266 34.1 561.306 35.26C561.386 36.42 561.566 37.28 561.846 37.84C562.127 38.4 562.586 38.76 563.227 38.92C563.906 39.08 564.846 39.16 566.047 39.16ZM587.001 46V15.4H596.121L596.361 20.62H596.901C597.461 19.14 598.161 17.98 599.001 17.14C599.881 16.3 600.941 15.72 602.181 15.4C603.421 15.08 604.861 14.92 606.501 14.92V23.74C603.981 23.74 602.001 24.06 600.561 24.7C599.121 25.34 598.101 26.44 597.501 28C596.901 29.52 596.601 31.66 596.601 34.42V46H587.001ZM623.49 46.48C622.21 46.48 620.81 46.44 619.29 46.36C617.81 46.28 616.35 46.18 614.91 46.06C613.51 45.94 612.25 45.8 611.13 45.64V38.86C611.77 38.9 612.49 38.96 613.29 39.04C614.13 39.12 614.99 39.18 615.87 39.22C616.75 39.26 617.59 39.3 618.39 39.34C619.23 39.34 619.99 39.34 620.67 39.34C622.55 39.34 623.89 39.28 624.69 39.16C625.53 39.04 626.05 38.8 626.25 38.44C626.49 38.04 626.61 37.52 626.61 36.88C626.61 36.24 626.53 35.78 626.37 35.5C626.25 35.22 625.97 35.02 625.53 34.9C625.13 34.78 624.43 34.66 623.43 34.54L616.29 33.64C614.57 33.4 613.27 32.9 612.39 32.14C611.51 31.34 610.91 30.28 610.59 28.96C610.31 27.6 610.17 26.02 610.17 24.22C610.17 22.1 610.49 20.44 611.13 19.24C611.77 18 612.65 17.08 613.77 16.48C614.93 15.84 616.29 15.42 617.85 15.22C619.45 15.02 621.15 14.92 622.95 14.92C624.23 14.92 625.55 14.96 626.91 15.04C628.27 15.12 629.57 15.24 630.81 15.4C632.05 15.52 633.07 15.66 633.87 15.82V22.54C632.87 22.46 631.81 22.38 630.69 22.3C629.61 22.22 628.57 22.16 627.57 22.12C626.57 22.08 625.73 22.06 625.05 22.06C623.45 22.06 622.21 22.1 621.33 22.18C620.49 22.26 619.91 22.46 619.59 22.78C619.31 23.1 619.17 23.62 619.17 24.34C619.17 24.9 619.21 25.34 619.29 25.66C619.41 25.94 619.67 26.14 620.07 26.26C620.47 26.38 621.09 26.5 621.93 26.62L629.13 27.52C630.49 27.68 631.65 28 632.61 28.48C633.57 28.96 634.29 29.82 634.77 31.06C635.29 32.3 635.55 34.16 635.55 36.64C635.55 38.88 635.25 40.66 634.65 41.98C634.09 43.26 633.27 44.24 632.19 44.92C631.11 45.56 629.83 45.98 628.35 46.18C626.91 46.38 625.29 46.48 623.49 46.48Z"/>
</mask>
<path d="M1.36914 46V4.72H21.2291C23.8691 4.72 26.0091 5.04 27.6491 5.68C29.2891 6.28 30.5491 7.18 31.4291 8.38C32.3091 9.54 32.9091 10.98 33.2291 12.7C33.5491 14.42 33.7091 16.4 33.7091 18.64C33.7091 20.68 33.5491 22.56 33.2291 24.28C32.9491 25.96 32.3691 27.42 31.4891 28.66C30.6491 29.9 29.3891 30.86 27.7091 31.54C26.0291 32.22 23.8091 32.56 21.0491 32.56H11.8091V46H1.36914ZM11.8091 24.64H17.0291C18.4691 24.64 19.5891 24.56 20.3891 24.4C21.2291 24.24 21.8491 23.96 22.2491 23.56C22.6491 23.12 22.9091 22.52 23.0291 21.76C23.1491 20.96 23.2091 19.92 23.2091 18.64C23.2091 17.36 23.1491 16.32 23.0291 15.52C22.9491 14.72 22.7091 14.12 22.3091 13.72C21.9091 13.28 21.3091 13 20.5091 12.88C19.7091 12.72 18.6091 12.64 17.2091 12.64H11.8091V24.64ZM39.3838 46V15.4H48.5038L48.7438 20.62H49.2838C49.8438 19.14 50.5438 17.98 51.3838 17.14C52.2638 16.3 53.3238 15.72 54.5638 15.4C55.8038 15.08 57.2438 14.92 58.8838 14.92V23.74C56.3638 23.74 54.3838 24.06 52.9438 24.7C51.5038 25.34 50.4838 26.44 49.8838 28C49.2838 29.52 48.9838 31.66 48.9838 34.42V46H39.3838ZM77.9802 46.48C75.1002 46.48 72.7202 46.3 70.8402 45.94C68.9602 45.58 67.4602 45.02 66.3402 44.26C65.2602 43.46 64.4402 42.44 63.8802 41.2C63.3602 39.96 63.0202 38.48 62.8602 36.76C62.7402 35.04 62.6802 33.04 62.6802 30.76C62.6802 28 62.8002 25.62 63.0402 23.62C63.3202 21.62 63.9202 19.98 64.8402 18.7C65.7602 17.42 67.1802 16.48 69.1002 15.88C71.0602 15.24 73.7002 14.92 77.0202 14.92C79.7002 14.92 81.8802 15.12 83.5602 15.52C85.2402 15.88 86.5602 16.46 87.5202 17.26C88.5202 18.02 89.2202 19.02 89.6202 20.26C90.0602 21.5 90.3402 23 90.4602 24.76C90.5802 26.48 90.6402 28.48 90.6402 30.76V33.1H72.2202C72.2202 34.46 72.2802 35.56 72.4002 36.4C72.5202 37.2 72.8402 37.8 73.3602 38.2C73.8802 38.6 74.6802 38.88 75.7602 39.04C76.8402 39.16 78.3402 39.22 80.2602 39.22C81.0202 39.22 81.9202 39.2 82.9602 39.16C84.0002 39.12 85.0802 39.06 86.2002 38.98C87.3602 38.9 88.4402 38.82 89.4402 38.74V45.46C88.5602 45.66 87.4802 45.84 86.2002 46C84.9602 46.16 83.6202 46.28 82.1802 46.36C80.7402 46.44 79.3402 46.48 77.9802 46.48ZM81.5802 29.08V28.12C81.5802 26.68 81.5002 25.54 81.3402 24.7C81.2202 23.86 80.9802 23.24 80.6202 22.84C80.3002 22.4 79.8402 22.12 79.2402 22C78.6402 21.88 77.8802 21.82 76.9602 21.82C75.9202 21.82 75.0802 21.9 74.4402 22.06C73.8402 22.18 73.3802 22.46 73.0602 22.9C72.7402 23.34 72.5202 23.98 72.4002 24.82C72.2802 25.66 72.2202 26.76 72.2202 28.12H82.6002L81.5802 29.08ZM112.814 46V4.72H133.274C135.954 4.72 138.114 5.02 139.754 5.62C141.434 6.18 142.694 7.04 143.534 8.2C144.414 9.32 144.994 10.72 145.274 12.4C145.594 14.04 145.754 15.92 145.754 18.04C145.754 19.6 145.634 21.18 145.394 22.78C145.154 24.34 144.634 25.78 143.834 27.1C143.074 28.38 141.894 29.36 140.294 30.04L146.534 46H135.674L129.854 29.5L132.494 30.94C132.134 31.14 131.754 31.26 131.354 31.3C130.994 31.34 130.534 31.36 129.974 31.36H123.254V46H112.814ZM123.254 23.62H129.254C130.614 23.62 131.694 23.56 132.494 23.44C133.334 23.28 133.954 23 134.354 22.6C134.754 22.2 135.014 21.64 135.134 20.92C135.254 20.2 135.314 19.28 135.314 18.16C135.314 17 135.254 16.06 135.134 15.34C135.054 14.62 134.814 14.08 134.414 13.72C134.054 13.32 133.454 13.04 132.614 12.88C131.814 12.72 130.694 12.64 129.254 12.64H123.254V23.62ZM166.867 46.48C163.987 46.48 161.607 46.3 159.727 45.94C157.847 45.58 156.347 45.02 155.227 44.26C154.147 43.46 153.327 42.44 152.767 41.2C152.247 39.96 151.907 38.48 151.747 36.76C151.627 35.04 151.567 33.04 151.567 30.76C151.567 28 151.687 25.62 151.927 23.62C152.207 21.62 152.807 19.98 153.727 18.7C154.647 17.42 156.067 16.48 157.987 15.88C159.947 15.24 162.587 14.92 165.907 14.92C168.587 14.92 170.767 15.12 172.447 15.52C174.127 15.88 175.447 16.46 176.407 17.26C177.407 18.02 178.107 19.02 178.507 20.26C178.947 21.5 179.227 23 179.347 24.76C179.467 26.48 179.527 28.48 179.527 30.76V33.1H161.107C161.107 34.46 161.167 35.56 161.287 36.4C161.407 37.2 161.727 37.8 162.247 38.2C162.767 38.6 163.567 38.88 164.647 39.04C165.727 39.16 167.227 39.22 169.147 39.22C169.907 39.22 170.807 39.2 171.847 39.16C172.887 39.12 173.967 39.06 175.087 38.98C176.247 38.9 177.327 38.82 178.327 38.74V45.46C177.447 45.66 176.367 45.84 175.087 46C173.847 46.16 172.507 46.28 171.067 46.36C169.627 46.44 168.227 46.48 166.867 46.48ZM170.467 29.08V28.12C170.467 26.68 170.387 25.54 170.227 24.7C170.107 23.86 169.867 23.24 169.507 22.84C169.187 22.4 168.727 22.12 168.127 22C167.527 21.88 166.767 21.82 165.847 21.82C164.807 21.82 163.967 21.9 163.327 22.06C162.727 22.18 162.267 22.46 161.947 22.9C161.627 23.34 161.407 23.98 161.287 24.82C161.167 25.66 161.107 26.76 161.107 28.12H171.487L170.467 29.08ZM198.225 58.36C196.945 58.36 195.605 58.32 194.205 58.24C192.845 58.2 191.565 58.12 190.365 58C189.165 57.88 188.165 57.74 187.365 57.58V50.92C188.205 50.96 189.105 50.98 190.065 50.98C191.025 51.02 191.985 51.04 192.945 51.04C193.945 51.04 194.885 51.04 195.765 51.04C197.725 51.04 199.245 50.96 200.325 50.8C201.445 50.68 202.265 50.38 202.785 49.9C203.345 49.46 203.685 48.78 203.805 47.86C203.925 46.98 203.985 45.78 203.985 44.26V42.1H203.505C202.905 43.14 202.165 43.94 201.285 44.5C200.445 45.02 199.505 45.38 198.465 45.58C197.425 45.78 196.305 45.88 195.105 45.88C193.265 45.88 191.705 45.64 190.425 45.16C189.145 44.64 188.085 43.82 187.245 42.7C186.445 41.54 185.865 39.96 185.505 37.96C185.145 35.96 184.965 33.46 184.965 30.46C184.965 27.42 185.145 24.9 185.505 22.9C185.905 20.9 186.505 19.32 187.305 18.16C188.105 17 189.145 16.18 190.425 15.7C191.705 15.18 193.245 14.92 195.045 14.92C196.165 14.92 197.265 15.04 198.345 15.28C199.465 15.48 200.485 15.88 201.405 16.48C202.365 17.08 203.145 17.96 203.745 19.12H204.225L204.465 15.4H213.645V42.52C213.645 45.2 213.505 47.54 213.225 49.54C212.945 51.54 212.305 53.18 211.305 54.46C210.345 55.78 208.825 56.76 206.745 57.4C204.705 58.04 201.865 58.36 198.225 58.36ZM199.305 38.02C200.465 38.02 201.345 37.9 201.945 37.66C202.585 37.38 203.045 36.9 203.325 36.22C203.605 35.58 203.785 34.8 203.865 33.88C203.945 32.92 203.985 31.78 203.985 30.46C203.985 29.18 203.945 28.06 203.865 27.1C203.825 26.14 203.645 25.36 203.325 24.76C203.045 24 202.585 23.5 201.945 23.26C201.345 22.98 200.465 22.84 199.305 22.84C198.225 22.84 197.365 22.92 196.725 23.08C196.085 23.2 195.605 23.5 195.285 23.98C195.005 24.46 194.825 25.22 194.745 26.26C194.665 27.3 194.625 28.7 194.625 30.46C194.625 32.22 194.665 33.6 194.745 34.6C194.825 35.6 195.005 36.36 195.285 36.88C195.605 37.36 196.085 37.68 196.725 37.84C197.365 37.96 198.225 38.02 199.305 38.02ZM220.963 9.16V1.42H230.863V9.16H220.963ZM221.083 46V15.4H230.803V46H221.083ZM250.131 46.48C248.851 46.48 247.451 46.44 245.931 46.36C244.451 46.28 242.991 46.18 241.551 46.06C240.151 45.94 238.891 45.8 237.771 45.64V38.86C238.411 38.9 239.131 38.96 239.931 39.04C240.771 39.12 241.631 39.18 242.511 39.22C243.391 39.26 244.231 39.3 245.031 39.34C245.871 39.34 246.631 39.34 247.311 39.34C249.191 39.34 250.531 39.28 251.331 39.16C252.171 39.04 252.691 38.8 252.891 38.44C253.131 38.04 253.251 37.52 253.251 36.88C253.251 36.24 253.171 35.78 253.011 35.5C252.891 35.22 252.611 35.02 252.171 34.9C251.771 34.78 251.071 34.66 250.071 34.54L242.931 33.64C241.211 33.4 239.911 32.9 239.031 32.14C238.151 31.34 237.551 30.28 237.231 28.96C236.951 27.6 236.811 26.02 236.811 24.22C236.811 22.1 237.131 20.44 237.771 19.24C238.411 18 239.291 17.08 240.411 16.48C241.571 15.84 242.931 15.42 244.491 15.22C246.091 15.02 247.791 14.92 249.591 14.92C250.871 14.92 252.191 14.96 253.551 15.04C254.911 15.12 256.211 15.24 257.451 15.4C258.691 15.52 259.711 15.66 260.511 15.82V22.54C259.511 22.46 258.451 22.38 257.331 22.3C256.251 22.22 255.211 22.16 254.211 22.12C253.211 22.08 252.371 22.06 251.691 22.06C250.091 22.06 248.851 22.1 247.971 22.18C247.131 22.26 246.551 22.46 246.231 22.78C245.951 23.1 245.811 23.62 245.811 24.34C245.811 24.9 245.851 25.34 245.931 25.66C246.051 25.94 246.311 26.14 246.711 26.26C247.111 26.38 247.731 26.5 248.571 26.62L255.771 27.52C257.131 27.68 258.291 28 259.251 28.48C260.211 28.96 260.931 29.82 261.411 31.06C261.931 32.3 262.191 34.16 262.191 36.64C262.191 38.88 261.891 40.66 261.291 41.98C260.731 43.26 259.911 44.24 258.831 44.92C257.751 45.56 256.471 45.98 254.991 46.18C253.551 46.38 251.931 46.48 250.131 46.48ZM271.018 46V22.72H265.438V15.4H271.018V6.52H280.738V15.4H287.398V22.72H280.738V46H271.018ZM306.379 46.48C303.499 46.48 301.119 46.3 299.239 45.94C297.359 45.58 295.859 45.02 294.739 44.26C293.659 43.46 292.839 42.44 292.279 41.2C291.759 39.96 291.419 38.48 291.259 36.76C291.139 35.04 291.079 33.04 291.079 30.76C291.079 28 291.199 25.62 291.439 23.62C291.719 21.62 292.319 19.98 293.239 18.7C294.159 17.42 295.579 16.48 297.499 15.88C299.459 15.24 302.099 14.92 305.419 14.92C308.099 14.92 310.279 15.12 311.959 15.52C313.639 15.88 314.959 16.46 315.919 17.26C316.919 18.02 317.619 19.02 318.019 20.26C318.459 21.5 318.739 23 318.859 24.76C318.979 26.48 319.039 28.48 319.039 30.76V33.1H300.619C300.619 34.46 300.679 35.56 300.799 36.4C300.919 37.2 301.239 37.8 301.759 38.2C302.279 38.6 303.079 38.88 304.159 39.04C305.239 39.16 306.739 39.22 308.659 39.22C309.419 39.22 310.319 39.2 311.359 39.16C312.399 39.12 313.479 39.06 314.599 38.98C315.759 38.9 316.839 38.82 317.839 38.74V45.46C316.959 45.66 315.879 45.84 314.599 46C313.359 46.16 312.019 46.28 310.579 46.36C309.139 46.44 307.739 46.48 306.379 46.48ZM309.979 29.08V28.12C309.979 26.68 309.899 25.54 309.739 24.7C309.619 23.86 309.379 23.24 309.019 22.84C308.699 22.4 308.239 22.12 307.639 22C307.039 21.88 306.279 21.82 305.359 21.82C304.319 21.82 303.479 21.9 302.839 22.06C302.239 22.18 301.779 22.46 301.459 22.9C301.139 23.34 300.919 23.98 300.799 24.82C300.679 25.66 300.619 26.76 300.619 28.12H310.999L309.979 29.08ZM325.497 46V15.4H334.617L334.857 20.62H335.397C335.957 19.14 336.657 17.98 337.497 17.14C338.377 16.3 339.437 15.72 340.677 15.4C341.917 15.08 343.357 14.92 344.997 14.92V23.74C342.477 23.74 340.497 24.06 339.057 24.7C337.617 25.34 336.597 26.44 335.997 28C335.397 29.52 335.097 31.66 335.097 34.42V46H325.497ZM364.562 32.8V25.06H380.942V32.8H364.562ZM419.941 46.48C416.821 46.48 414.221 46.28 412.141 45.88C410.061 45.44 408.361 44.74 407.041 43.78C405.761 42.82 404.781 41.54 404.101 39.94C403.461 38.34 403.021 36.34 402.781 33.94C402.541 31.54 402.421 28.68 402.421 25.36C402.421 22.04 402.541 19.18 402.781 16.78C403.021 14.38 403.461 12.38 404.101 10.78C404.781 9.18 405.761 7.9 407.041 6.94C408.361 5.98 410.061 5.3 412.141 4.9C414.221 4.46 416.821 4.24 419.941 4.24C421.141 4.24 422.381 4.28 423.661 4.36C424.941 4.44 426.181 4.56 427.381 4.72C428.581 4.88 429.601 5.08 430.441 5.32V12.82C429.201 12.7 428.061 12.6 427.021 12.52C426.021 12.4 425.141 12.34 424.381 12.34C423.621 12.3 422.981 12.28 422.461 12.28C420.621 12.28 419.101 12.36 417.901 12.52C416.741 12.64 415.821 12.94 415.141 13.42C414.461 13.9 413.961 14.62 413.641 15.58C413.321 16.5 413.101 17.76 412.981 19.36C412.901 20.92 412.861 22.92 412.861 25.36C412.861 27.76 412.901 29.76 412.981 31.36C413.101 32.96 413.321 34.24 413.641 35.2C413.961 36.16 414.461 36.88 415.141 37.36C415.821 37.8 416.741 38.1 417.901 38.26C419.101 38.38 420.621 38.44 422.461 38.44C423.701 38.44 425.101 38.4 426.661 38.32C428.221 38.2 429.561 38.06 430.681 37.9V45.58C429.801 45.74 428.741 45.88 427.501 46C426.261 46.16 424.981 46.28 423.661 46.36C422.381 46.44 421.141 46.48 419.941 46.48ZM437.06 46V15.4H446.18L446.42 20.62H446.96C447.52 19.14 448.22 17.98 449.06 17.14C449.94 16.3 451 15.72 452.24 15.4C453.48 15.08 454.92 14.92 456.56 14.92V23.74C454.04 23.74 452.06 24.06 450.62 24.7C449.18 25.34 448.16 26.44 447.56 28C446.96 29.52 446.66 31.66 446.66 34.42V46H437.06ZM475.656 46.48C472.776 46.48 470.396 46.3 468.516 45.94C466.636 45.58 465.136 45.02 464.016 44.26C462.936 43.46 462.116 42.44 461.556 41.2C461.036 39.96 460.696 38.48 460.536 36.76C460.416 35.04 460.356 33.04 460.356 30.76C460.356 28 460.476 25.62 460.716 23.62C460.996 21.62 461.596 19.98 462.516 18.7C463.436 17.42 464.856 16.48 466.776 15.88C468.736 15.24 471.376 14.92 474.696 14.92C477.376 14.92 479.556 15.12 481.236 15.52C482.916 15.88 484.236 16.46 485.196 17.26C486.196 18.02 486.896 19.02 487.296 20.26C487.736 21.5 488.016 23 488.136 24.76C488.256 26.48 488.316 28.48 488.316 30.76V33.1H469.896C469.896 34.46 469.956 35.56 470.076 36.4C470.196 37.2 470.516 37.8 471.036 38.2C471.556 38.6 472.356 38.88 473.436 39.04C474.516 39.16 476.016 39.22 477.936 39.22C478.696 39.22 479.596 39.2 480.636 39.16C481.676 39.12 482.756 39.06 483.876 38.98C485.036 38.9 486.116 38.82 487.116 38.74V45.46C486.236 45.66 485.156 45.84 483.876 46C482.636 46.16 481.296 46.28 479.856 46.36C478.416 46.44 477.016 46.48 475.656 46.48ZM479.256 29.08V28.12C479.256 26.68 479.176 25.54 479.016 24.7C478.896 23.86 478.656 23.24 478.296 22.84C477.976 22.4 477.516 22.12 476.916 22C476.316 21.88 475.556 21.82 474.636 21.82C473.596 21.82 472.756 21.9 472.116 22.06C471.516 22.18 471.056 22.46 470.736 22.9C470.416 23.34 470.196 23.98 470.076 24.82C469.956 25.66 469.896 26.76 469.896 28.12H480.276L479.256 29.08ZM502.214 46.48C500.294 46.48 498.674 46.18 497.354 45.58C496.034 44.98 495.034 44 494.354 42.64C493.714 41.28 493.394 39.5 493.394 37.3C493.394 34.98 493.654 33.14 494.174 31.78C494.734 30.38 495.714 29.38 497.114 28.78C498.514 28.18 500.494 27.88 503.054 27.88C503.414 27.88 503.914 27.9 504.554 27.94C505.234 27.94 505.994 27.96 506.834 28C507.674 28 508.514 28.02 509.354 28.06C510.194 28.06 510.954 28.08 511.634 28.12V26.98C511.634 25.82 511.534 24.92 511.334 24.28C511.174 23.64 510.834 23.18 510.314 22.9C509.834 22.58 509.094 22.4 508.094 22.36C507.094 22.28 505.774 22.24 504.134 22.24C503.214 22.24 502.194 22.26 501.074 22.3C499.994 22.34 498.914 22.4 497.834 22.48C496.794 22.52 495.914 22.58 495.194 22.66V15.88C496.834 15.6 498.674 15.38 500.714 15.22C502.794 15.02 504.974 14.92 507.254 14.92C509.814 14.92 511.934 15.08 513.614 15.4C515.334 15.72 516.714 16.22 517.754 16.9C518.794 17.54 519.554 18.36 520.034 19.36C520.554 20.36 520.894 21.54 521.054 22.9C521.214 24.26 521.294 25.8 521.294 27.52V46H512.054L511.814 42.4H511.334C510.574 43.6 509.694 44.5 508.694 45.1C507.694 45.7 506.634 46.08 505.514 46.24C504.394 46.4 503.294 46.48 502.214 46.48ZM506.774 39.64C507.494 39.64 508.114 39.6 508.634 39.52C509.194 39.4 509.654 39.22 510.014 38.98C510.414 38.7 510.734 38.36 510.974 37.96C511.174 37.52 511.334 36.98 511.454 36.34C511.574 35.7 511.634 34.94 511.634 34.06V32.92H506.054C505.054 32.92 504.294 33 503.774 33.16C503.254 33.28 502.894 33.6 502.694 34.12C502.534 34.6 502.454 35.36 502.454 36.4C502.454 37.28 502.554 37.96 502.754 38.44C502.954 38.92 503.354 39.24 503.954 39.4C504.594 39.56 505.534 39.64 506.774 39.64ZM531.526 46V22.72H525.946V15.4H531.526V6.52H541.246V15.4H547.906V22.72H541.246V46H531.526ZM566.047 46.48C563.327 46.48 561.066 46.32 559.266 46C557.466 45.68 556.046 45.16 555.006 44.44C553.966 43.72 553.206 42.76 552.727 41.56C552.247 40.36 551.926 38.86 551.766 37.06C551.646 35.26 551.586 33.12 551.586 30.64C551.586 28.16 551.646 26.04 551.766 24.28C551.926 22.48 552.247 20.98 552.727 19.78C553.206 18.58 553.966 17.62 555.006 16.9C556.046 16.18 557.466 15.68 559.266 15.4C561.066 15.08 563.327 14.92 566.047 14.92C568.807 14.92 571.086 15.08 572.886 15.4C574.686 15.68 576.107 16.18 577.146 16.9C578.186 17.62 578.947 18.58 579.427 19.78C579.906 20.98 580.206 22.48 580.326 24.28C580.486 26.04 580.566 28.16 580.566 30.64C580.566 33.12 580.486 35.26 580.326 37.06C580.206 38.86 579.906 40.36 579.427 41.56C578.947 42.76 578.186 43.72 577.146 44.44C576.107 45.16 574.686 45.68 572.886 46C571.086 46.32 568.807 46.48 566.047 46.48ZM566.047 39.16C567.247 39.16 568.186 39.08 568.866 38.92C569.546 38.76 570.026 38.4 570.306 37.84C570.586 37.28 570.747 36.42 570.786 35.26C570.867 34.1 570.906 32.56 570.906 30.64C570.906 28.72 570.867 27.2 570.786 26.08C570.747 24.96 570.586 24.12 570.306 23.56C570.026 23 569.546 22.64 568.866 22.48C568.186 22.32 567.247 22.24 566.047 22.24C564.846 22.24 563.906 22.32 563.227 22.48C562.586 22.64 562.127 23 561.846 23.56C561.566 24.12 561.386 24.96 561.306 26.08C561.266 27.2 561.246 28.72 561.246 30.64C561.246 32.56 561.266 34.1 561.306 35.26C561.386 36.42 561.566 37.28 561.846 37.84C562.127 38.4 562.586 38.76 563.227 38.92C563.906 39.08 564.846 39.16 566.047 39.16ZM587.001 46V15.4H596.121L596.361 20.62H596.901C597.461 19.14 598.161 17.98 599.001 17.14C599.881 16.3 600.941 15.72 602.181 15.4C603.421 15.08 604.861 14.92 606.501 14.92V23.74C603.981 23.74 602.001 24.06 600.561 24.7C599.121 25.34 598.101 26.44 597.501 28C596.901 29.52 596.601 31.66 596.601 34.42V46H587.001ZM623.49 46.48C622.21 46.48 620.81 46.44 619.29 46.36C617.81 46.28 616.35 46.18 614.91 46.06C613.51 45.94 612.25 45.8 611.13 45.64V38.86C611.77 38.9 612.49 38.96 613.29 39.04C614.13 39.12 614.99 39.18 615.87 39.22C616.75 39.26 617.59 39.3 618.39 39.34C619.23 39.34 619.99 39.34 620.67 39.34C622.55 39.34 623.89 39.28 624.69 39.16C625.53 39.04 626.05 38.8 626.25 38.44C626.49 38.04 626.61 37.52 626.61 36.88C626.61 36.24 626.53 35.78 626.37 35.5C626.25 35.22 625.97 35.02 625.53 34.9C625.13 34.78 624.43 34.66 623.43 34.54L616.29 33.64C614.57 33.4 613.27 32.9 612.39 32.14C611.51 31.34 610.91 30.28 610.59 28.96C610.31 27.6 610.17 26.02 610.17 24.22C610.17 22.1 610.49 20.44 611.13 19.24C611.77 18 612.65 17.08 613.77 16.48C614.93 15.84 616.29 15.42 617.85 15.22C619.45 15.02 621.15 14.92 622.95 14.92C624.23 14.92 625.55 14.96 626.91 15.04C628.27 15.12 629.57 15.24 630.81 15.4C632.05 15.52 633.07 15.66 633.87 15.82V22.54C632.87 22.46 631.81 22.38 630.69 22.3C629.61 22.22 628.57 22.16 627.57 22.12C626.57 22.08 625.73 22.06 625.05 22.06C623.45 22.06 622.21 22.1 621.33 22.18C620.49 22.26 619.91 22.46 619.59 22.78C619.31 23.1 619.17 23.62 619.17 24.34C619.17 24.9 619.21 25.34 619.29 25.66C619.41 25.94 619.67 26.14 620.07 26.26C620.47 26.38 621.09 26.5 621.93 26.62L629.13 27.52C630.49 27.68 631.65 28 632.61 28.48C633.57 28.96 634.29 29.82 634.77 31.06C635.29 32.3 635.55 34.16 635.55 36.64C635.55 38.88 635.25 40.66 634.65 41.98C634.09 43.26 633.27 44.24 632.19 44.92C631.11 45.56 629.83 45.98 628.35 46.18C626.91 46.38 625.29 46.48 623.49 46.48Z" stroke="white" stroke-width="2" mask="url(#path-1-outside-1_219_496)"/>
</svg>
